<?xml version="1.0" encoding="UTF-8" standalone="no"?>
<svg width="100px" height="100px" viewBox="0 0 100 100" version="1.1" xmlns="http://www.w3.org/2000/svg" xmlns:xlink="http://www.w3.org/1999/xlink">
    <!-- Generator: Sketch 3.6.1 (26313) - http://www.bohemiancoding.com/sketch -->
    <title>googleplus-icon-wht</title>
    <desc>Created with Sketch.</desc>
    <defs></defs>
    <g id="Page-1" stroke="none" stroke-width="1" fill="none" fill-rule="evenodd">
        <g id="googleplus-icon-wht" fill="#FFFFFF">
            <path d="M59.6571091,47.5510364 L35.6626545,47.5510364 L35.6626545,55.7256727 L51.2248364,55.7256727 C50.6563818,58.8291273 49.3717455,61.3759455 47.4028364,63.3034909 C44.7709273,65.8786727 40.9583818,67.2708545 36.3752909,67.3299455 C36.3611091,67.3275818 36.3469273,67.3264 36.3327455,67.3252182 L36.3327455,67.3228545 L36.3162,67.3240364 C36.2263818,67.3169455 36.1377455,67.3169455 36.0621091,67.3169455 C31.5345636,67.3169455 27.2918364,65.5595818 24.1162909,62.3698545 C20.9301091,59.1671273 19.1751091,54.8901273 19.1751091,50.3294909 C19.1751091,45.7700364 20.9289273,41.4977636 24.1139273,38.2997636 C27.2882909,35.1124 31.5310182,33.3574 36.0621091,33.3574 C38.2224727,33.3574 40.3261091,33.7556727 42.3115636,34.5415818 C44.3159273,35.3345818 46.1241091,36.4809455 47.6876545,37.9487636 L48.1178364,38.3541273 L53.7090182,32.4119455 L53.2776545,32.0065818 C50.9400182,29.8119455 48.2596545,28.1077636 45.3145636,26.9413091 C42.3647455,25.7736727 39.2518364,25.1815818 36.0621091,25.1815818 C29.3600182,25.1815818 23.0632909,27.7981273 18.3324727,32.5490364 C13.6040182,37.2952182 11.0004727,43.6108545 11.0004727,50.3294909 C11.0004727,57.0493091 13.6052,63.3661273 18.3336545,68.1194 C23.0656545,72.8738545 29.3623818,75.4927636 36.0621091,75.4927636 C36.0952,75.4927636 36.1365636,75.4927636 36.1826545,75.4904 L36.6530182,75.5045818 L36.6530182,75.4738545 C43.3078364,75.3485818 48.9959273,73.1551273 53.1192909,69.1192182 C57.3041091,65.0242182 59.5720182,59.2983091 59.6961091,52.5335818 L59.7150182,51.9426727 C59.7150182,51.9166727 59.7150182,51.8824 59.7138364,51.8422182 L59.7280182,51.3517636 L59.6571091,47.5510364 Z M88.8997818,47.7764091 L81.5228727,47.7764091 L81.5228727,40.3995 L74.8207818,40.3995 L74.8207818,47.7764091 L67.4438727,47.7764091 L67.4438727,54.4785 L74.8207818,54.4785 L74.8207818,61.8554091 L81.5228727,61.8554091 L81.5228727,54.4785 L88.8997818,54.4785 L88.8997818,47.7764091 Z" id="Combined-Shape"></path>
        </g>
    </g>
</svg>