<?xml version="1.0" encoding="UTF-8" standalone="no"?>
<svg width="100px" height="100px" viewBox="0 0 100 100" version="1.1" xmlns="http://www.w3.org/2000/svg" xmlns:xlink="http://www.w3.org/1999/xlink">
    <!-- Generator: Sketch 3.6.1 (26313) - http://www.bohemiancoding.com/sketch -->
    <title>salesforce-icon-wht</title>
    <desc>Created with Sketch.</desc>
    <defs></defs>
    <g id="Page-1" stroke="none" stroke-width="1" fill="none" fill-rule="evenodd">
        <g id="salesforce-icon-wht" fill="#FFFFFF">
            <path d="M43.2843408,27.09017 C45.8635336,24.4098633 49.4547444,22.747039 53.4269417,22.747039 C58.7074798,22.747039 63.3132197,25.6831923 65.7666726,30.0426045 C67.8990493,29.0929304 70.2583318,28.5640613 72.7410224,28.5640613 C82.2642511,28.5640613 89.985148,36.332138 89.985148,45.9140422 C89.985148,55.4973776 82.2642511,63.2654543 72.7410224,63.2654543 C71.5785112,63.2654543 70.4429058,63.1480869 69.343713,62.9276652 C67.1842511,66.7700166 63.0674798,69.3673073 58.3419193,69.3673073 C56.3646996,69.3673073 54.4943857,68.9123297 52.8274798,68.1009559 C50.6386009,73.2390006 45.5354619,76.8421444 39.5896323,76.8421444 C33.3968072,76.8421444 28.1186009,72.9341316 26.09313,67.4525725 C25.2079283,67.6390006 24.2899013,67.7374032 23.3494529,67.7374032 C15.9765381,67.7374032 10.0000359,61.7140933 10.0000359,54.2836268 C10.0000359,49.3028473 12.6838027,44.9550645 16.6746547,42.6286492 C15.85313,40.7420038 15.3969865,38.6619527 15.3969865,36.4740166 C15.3969865,27.9285597 22.3526816,21.0001252 30.9316951,21.0001252 C35.9690045,21.0001252 40.445417,23.3884447 43.2843408,27.09017" id="Fill-1"></path>
        </g>
    </g>
</svg>