<?xml version="1.0" encoding="UTF-8" standalone="no"?>
<svg width="100px" height="100px" viewBox="0 0 100 100" version="1.1" xmlns="http://www.w3.org/2000/svg" xmlns:xlink="http://www.w3.org/1999/xlink">
    <!-- Generator: Sketch 39.1 (31720) - http://www.bohemiancoding.com/sketch -->
    <title>audio-off-lock</title>
    <desc>Created with Sketch.</desc>
    <defs></defs>
    <g id="ICONS" stroke="none" stroke-width="1" fill="none" fill-rule="evenodd">
        <g id="audio-off-lock" stroke="#000000">
            <path d="M60.5194153,26.4418851 C60.5194153,22.3327591 56.7347778,19 52.0673141,19 C47.3998503,19 43.6177717,22.3327591 43.6177717,26.4418851 L43.6177717,52.2714068 C43.6177717,56.3805328 47.3998503,59.713292 52.0673141,59.713292 C56.7347778,59.713292 60.5194153,56.3805328 60.5194153,52.2714068 L60.5194153,26.4418851 L60.5194153,26.4418851 Z" id="Stroke-1" stroke-width="3.24" stroke-linecap="round" stroke-linejoin="round"></path>
            <path d="M31,51.4984107 C31,51.4984107 32.1310411,69.3752796 51.3715344,69.3752796 C70.6120277,69.3752796 71.7430688,51.4984107 71.7430688,51.4984107" id="Stroke-3" stroke-width="3.24" stroke-linecap="round" stroke-linejoin="round"></path>
            <path d="M52,69.5530833 L52,77.6819509" id="Stroke-5" stroke-width="3.24" stroke-linecap="round" stroke-linejoin="round"></path>
            <path d="M80.288441,19.8974678 L18.7966192,81.0307743" id="Line" stroke-width="3.0375" stroke-linecap="square"></path>
            <path d="M86.4573207,84.8944675 L75.3837717,84.8944675 C74.6060639,84.8944675 73.9710064,84.2826024 73.9710064,83.5411654 L73.9710064,74.9295849 C73.9710064,74.1881479 74.6060639,73.5762828 75.3837717,73.5762828 L86.4573207,73.5762828 C87.2350284,73.5762828 87.8700859,74.1881479 87.8700859,74.9295849 L87.8700859,83.5411654 C87.8700859,84.2826024 87.2350284,84.8944675 86.4573207,84.8944675 L86.4573207,84.8944675 L86.4573207,84.8944675 Z" id="Stroke-1" fill="#000000"></path>
            <path d="M76.2567207,69.3045849 C76.2567207,68.5631479 76.8917781,67.9512828 77.669486,67.9512828 L83.9176365,67.9512828 C84.6953443,67.9512828 85.3304018,68.5631479 85.3304018,69.3045849 L85.3304018,73.3428922 L86.3014082,73.3428922 L86.3014082,69.3045849 C86.3014082,68.0341841 85.228024,67 83.9176365,67 L77.669486,67 C76.3590984,67 75.2857143,68.0341841 75.2857143,69.3045849 L75.2857143,73.1151887 L76.2567207,73.1151887 L76.2567207,69.3045849 Z" id="Stroke-3" fill="#000000"></path>
        </g>
    </g>
</svg>