<?xml version="1.0" encoding="UTF-8" standalone="no"?>
<svg width="100px" height="100px" viewBox="0 0 100 100" version="1.1" xmlns="http://www.w3.org/2000/svg" xmlns:xlink="http://www.w3.org/1999/xlink">
    <!-- Generator: Sketch 3.6.1 (26313) - http://www.bohemiancoding.com/sketch -->
    <title>camera-blk</title>
    <desc>Created with Sketch.</desc>
    <defs></defs>
    <g id="Page-1" stroke="none" stroke-width="1" fill="none" fill-rule="evenodd">
        <g id="camera-blk" stroke="#000000" stroke-width="3">
            <g id="Group" transform="translate(20.000000, 23.000000)">
                <path d="M42.605042,5.65514037 L17.6470588,5.90747682 L20.3999999,1.33738318 C20.9999999,0.445794393 21.8999999,0 22.9499999,0 L37.3499999,0 C38.3999999,0 39.2999999,0.445794393 39.8999999,1.33738318 L42.605042,5.65514037 Z" id="Shape"></path>
                <path d="M6,53.6074766 C2.7,53.6074766 0,50.9327103 0,47.6635513 L0,12 C0,8.73084112 2.7,6.05607477 6,6.05607477 L54,6.05607477 C57.3,6.05607477 60,8.73084112 60,12 L60,47.6635513 C60,50.9327103 57.3,53.6074766 54,53.6074766 L6,53.6074766 L6,53.6074766 Z" id="Shape"></path>
                <ellipse id="Combined-Shape" cx="29.9562391" cy="31.8504673" rx="14.8301887" ry="14.6915888"></ellipse>
                <path d="M0.504201681,14.635514 L10.8403361,14.635514" id="Path-169"></path>
                <path d="M0.504201681,22.2056075 L10.8403361,22.2056075" id="Path-169"></path>
            </g>
        </g>
    </g>
</svg>