<?xml version="1.0" encoding="UTF-8" standalone="no"?>
<svg width="100px" height="100px" viewBox="0 0 100 100" version="1.1" xmlns="http://www.w3.org/2000/svg" xmlns:xlink="http://www.w3.org/1999/xlink">
    <!-- Generator: Sketch 3.6.1 (26313) - http://www.bohemiancoding.com/sketch -->
    <title>chat-grey</title>
    <desc>Created with Sketch.</desc>
    <defs></defs>
    <g id="Page-1" stroke="none" stroke-width="1" fill="none" fill-rule="evenodd">
        <g id="chat-grey" stroke="#8E8E8E" stroke-width="3.5">
            <path d="M76.0759432,22.0070809 C80.2076563,22.0095592 81.9742516,23.7610085 81.9830846,27.8629475 C82.005697,38.3139347 82.005697,49.1426855 81.9827313,60.0475555 C81.9770782,62.7651875 81.2965857,65.885366 76.0399047,65.8903226 L72.7042194,65.893509 C69.2427526,65.8974035 65.7809324,65.9009439 62.3198189,65.9009439 C56.1745405,65.9009439 51.1726025,65.8889065 46.5773348,65.8630613 C44.0906752,65.8630613 42.2071313,66.7187826 40.5906966,68.5566184 C37.8461142,71.677505 34.9828165,74.8433551 32.049915,78 C32.0375488,76.2995328 32.0446152,74.5756988 32.0520349,72.7941558 C32.056628,71.6874182 32.0612212,70.5679351 32.0612212,69.4311039 C32.0612212,67.4757259 30.4794117,65.8906767 28.5280306,65.8906767 C28.1104074,65.8906767 27.7270562,65.8920928 27.3659642,65.893509 C27.0536301,65.8945711 26.7586087,65.8956333 26.4731269,65.8956333 C26.1339406,65.8956333 25.8088871,65.8942171 25.4841868,65.8892605 C21.9011782,65.8329677 20.066039,63.9749515 20.0300005,60.366194 C19.9893688,56.3120507 19.9989084,52.1786019 20.0077414,48.1811055 C20.0119812,46.4162025 20.0158677,44.6512995 20.0158677,42.8863965 C20.0158677,41.3781745 20.0141011,39.8695985 20.0126879,38.3613765 C20.0088014,34.919019 20.0052682,31.3598275 20.0208142,27.8640097 C20.0391868,23.7606545 21.8082553,22.0088511 25.9364352,22.0067268 C34.4920563,22.0024783 43.049444,22 51.605065,22 C59.7624955,22 67.9181594,22.0021243 76.0759432,22.0070809 Z" id="Page-1"></path>
        </g>
    </g>
</svg>