<?xml version="1.0" encoding="UTF-8" standalone="no"?>
<svg width="100px" height="100px" viewBox="0 0 100 100" version="1.1" xmlns="http://www.w3.org/2000/svg" xmlns:xlink="http://www.w3.org/1999/xlink">
    <!-- Generator: Sketch 3.8.3 (29802) - http://www.bohemiancoding.com/sketch -->
    <title>comment-icon</title>
    <desc>Created with Sketch.</desc>
    <defs></defs>
    <g id="Icons/Font" stroke="none" stroke-width="1" fill="none" fill-rule="evenodd">
        <g id="comment-icon" fill="#000000">
            <path d="M23.3905861,55.9201365 L64.2696461,55.9201365 C67.5910697,55.9201365 70.4015051,53.1097011 70.4015051,49.7882774 L70.4015051,25.2608414 C70.4015051,23.9833708 71.1679875,23.2168884 72.4454581,23.2168884 C73.7229287,23.2168884 74.4894111,23.9833708 74.4894111,25.2608414 L74.4894111,49.7882774 C74.4894111,55.4091482 69.8905168,60.0080425 64.2696461,60.0080425 L23.3905861,60.0080425 L23.3905861,55.9201365 L23.3905861,55.9201365 Z" id="Shape"></path>
            <path d="M35.6543041,72.2717605 C35.1433158,72.2717605 34.3768335,72.2717605 34.1213393,71.7607722 L21.8576213,59.4970542 C21.0911389,58.7305718 21.0911389,57.4531012 21.8576213,56.6866188 L34.1213393,44.4229008 C34.8878217,43.6564184 36.1652923,43.6564184 36.9317747,44.4229008 C37.6982571,45.1893832 37.6982571,46.4668538 36.9317747,47.2333362 L26.2010215,57.9640895 L36.9317747,68.6948427 C37.6982571,69.4613251 37.6982571,70.7387957 36.9317747,71.5052781 C36.9317747,72.2717605 35.9097982,72.2717605 35.6543041,72.2717605 L35.6543041,72.2717605 Z" id="Shape"></path>
        </g>
    </g>
</svg>