<?xml version="1.0" encoding="UTF-8" standalone="no"?>
<svg width="100px" height="100px" viewBox="0 0 100 100" version="1.1" xmlns="http://www.w3.org/2000/svg" xmlns:xlink="http://www.w3.org/1999/xlink">
    <!-- Generator: Sketch 3.8.3 (29802) - http://www.bohemiancoding.com/sketch -->
    <title>contacts-icon</title>
    <desc>Created with Sketch.</desc>
    <defs></defs>
    <g id="ICONS" stroke="none" stroke-width="1" fill="none" fill-rule="evenodd">
        <g id="contacts-icon" stroke="#FFFFFF" stroke-width="3.3">
            <path d="M58.141769,60.0818478 C58.141769,60.0818478 56.8191833,59.1568938 58.6072175,57.9676672 C60.3927082,56.7784407 63.3685262,53.6046287 64.7572413,49.2441313 C66.1484997,44.8810927 65.8051361,36.6479856 65.7593543,34.068787 C65.7161159,31.4895883 63.7653019,28.028634 61.5830354,26.0465897 C59.7517628,24.3821807 55.8603086,21 50.4300766,21 C44.9794972,21 41.088043,24.3821807 39.2567704,26.0465897 C37.0745039,28.028634 35.1236899,31.4895883 35.0804515,34.068787 C35.0346697,36.6479856 34.6913061,44.8810927 36.0825646,49.2441313 C37.4712796,53.6046287 40.4470976,56.7784407 42.2325884,57.9676672 C44.0206226,59.1568938 42.6980368,60.0818478 42.6980368,60.0818478 L25.247535,69.0340812 C25.247535,69.0340812 21,71.0517007 21,73.4326949 L21,76.9520941 C21,78.6851123 22.8974019,79.5109641 23.8842543,79.5236695 C24.8685634,79.5363749 44.9209983,79.7777778 44.9209983,79.7777778 L50.1706464,79.7777778 L50.4199029,79.7777778 L50.6691595,79.7777778 L55.9188076,79.7777778 C55.9188076,79.7777778 75.9712425,79.5363749 76.9555515,79.5236695 C77.9424039,79.5109641 79.8398058,78.6851123 79.8398058,76.9520941 L79.8398058,73.4326949 C79.8398058,71.0517007 75.5922708,69.0340812 75.5922708,69.0340812 L58.141769,60.0818478 Z" id="Stroke-1"></path>
        </g>
    </g>
</svg>