<?xml version="1.0" encoding="UTF-8" standalone="no"?>
<svg width="100px" height="100px" viewBox="0 0 100 100" version="1.1" xmlns="http://www.w3.org/2000/svg" xmlns:xlink="http://www.w3.org/1999/xlink">
    <!-- Generator: Sketch 3.7.1 (28215) - http://www.bohemiancoding.com/sketch -->
    <title>downlaod-icon-blk</title>
    <desc>Created with Sketch.</desc>
    <defs></defs>
    <g id="Icons/Font" stroke="none" stroke-width="1" fill="none" fill-rule="evenodd">
        <g id="downlaod-icon-blk" fill="#000000">
            <g id="Group" transform="translate(4.000000, 9.000000)">
                <path d="M66.1360421,57.2311489 C64.4879656,57.2311489 63.4991198,56.2139574 63.4991198,54.5186383 C63.4991198,52.8233191 64.4879656,51.8061277 66.1360421,51.8061277 L77.3429616,51.8061277 C79.3206533,51.8061277 81.6279603,50.7889362 83.2760367,49.093617 C84.9241131,47.3982979 85.2537284,45.3639149 84.9241131,42.6514043 C84.2648825,39.9388936 81.6279603,37.226383 78.6614227,36.5482553 L75.3652699,35.8701277 C71.7395018,35.192 69.4321949,31.4622979 70.0914254,28.4107234 L70.750656,24.6810213 L70.750656,22.6466383 C70.750656,18.2388085 69.1025796,14.5091064 66.4656573,11.7965957 C63.8287351,9.08408511 59.5437364,7.38876596 55.9179683,7.38876596 C50.6441238,7.38876596 45.3702793,11.1184681 43.3925876,16.5434894 L42.4037418,18.5778723 C41.414896,21.290383 38.7779737,22.9857021 35.4818209,22.3075745 L32.8448986,21.6294468 C28.2302847,20.9513191 22.9564402,24.3419574 21.3083638,29.0888511 L20.6491332,31.123234 C19.6602874,33.8357447 18.012211,35.5310638 15.3752887,35.5310638 L12.7383665,36.2091915 C10.7606748,36.8873191 8.45336784,37.9045106 7.46452199,39.9388936 C6.47567615,41.9732766 5.81644559,44.3467234 6.80529143,46.3811064 C7.79413727,49.093617 11.0902901,51.128 14.0568276,51.128 L24.6045166,51.128 C26.252593,51.128 27.2414389,52.1451915 27.2414389,53.8405106 C27.2414389,55.5358298 25.5933625,56.5530213 23.9452861,56.5530213 L13.3975971,56.5530213 C7.46452199,56.5530213 2.84990806,53.162383 1.20183165,47.7373617 C0.212985805,44.0076596 0.212985805,40.2779574 2.19067749,36.8873191 C4.16836918,33.4966809 7.46452199,31.4622979 11.0902901,30.7841702 L13.7272123,30.1060426 C14.3864429,30.1060426 14.7160582,29.4279149 14.7160582,29.0888511 L15.3752887,27.0544681 C17.3529804,20.6122553 23.9452861,15.5262979 30.5375917,15.5262979 L32.1856681,15.5262979 L34.8225903,16.2044255 C35.4818209,16.2044255 35.8114362,16.2044255 36.4706667,15.5262979 L37.4595126,13.4919149 C40.7556654,6.37157447 47.347971,1.62468085 54.9291225,0.946553191 C60.202967,0.946553191 65.4768115,2.64187234 69.7618101,6.37157447 C73.3875782,10.1012766 76.0245005,15.5262979 76.0245005,20.9513191 C76.0245005,21.9685106 76.0245005,22.9857021 75.3652699,24.3419574 L74.7060394,28.0716596 C74.7060394,28.7497872 75.3652699,29.7669787 75.6948852,29.7669787 L78.991038,30.4451064 C84.2648825,31.4622979 88.5498812,35.192 89.538727,40.6170213 C90.1979576,44.3467234 89.538727,48.0764255 86.9018048,51.4670638 C84.9241131,55.5358298 80.9687297,57.2311489 77.3429616,57.2311489 L66.1360421,57.2311489 Z" id="Shape"></path>
                <g transform="translate(33.977571, 49.093617)" id="Shape">
                    <path d="M8.75578618,32.2110638 L0.845019431,23.3954043 C-0.143826413,22.3782128 -0.143826413,20.6828936 0.845019431,19.6657021 C1.83386527,18.6485106 3.48194168,18.6485106 4.47078752,19.6657021 L10.7334779,26.1079149 L16.9961682,19.6657021 C17.9850141,18.6485106 19.6330905,18.6485106 20.6219363,19.6657021 C21.6107821,20.6828936 21.6107821,22.3782128 20.6219363,23.3954043 L12.7111696,31.5329362 C11.7223237,32.5501277 11.3927084,32.8891915 10.7334779,32.8891915 C10.0742473,32.8891915 9.08540146,32.2110638 8.75578618,32.2110638 Z"></path>
                    <path d="M10.7334779,32.8891915 C9.08540146,32.8891915 8.09655562,31.872 8.09655562,30.1766809 L8.09655562,3.05157447 C8.09655562,1.35625532 9.08540146,0.33906383 10.7334779,0.33906383 C12.3815543,0.33906383 13.3704001,1.35625532 13.3704001,3.05157447 L13.3704001,30.1766809 C13.3704001,31.1938723 11.7223237,32.8891915 10.7334779,32.8891915 L10.7334779,32.8891915 Z"></path>
                </g>
            </g>
        </g>
    </g>
</svg>