<?xml version="1.0" encoding="UTF-8" standalone="no"?>
<svg width="100px" height="100px" viewBox="0 0 100 100" version="1.1" xmlns="http://www.w3.org/2000/svg" xmlns:xlink="http://www.w3.org/1999/xlink">
    <!-- Generator: Sketch 3.8.3 (29802) - http://www.bohemiancoding.com/sketch -->
    <title>drive-icon</title>
    <desc>Created with Sketch.</desc>
    <defs></defs>
    <g id="ICONS" stroke="none" stroke-width="1" fill="none" fill-rule="evenodd">
        <g id="drive-icon" stroke="#FFFFFF" stroke-width="0.2" fill="#FFFFFF">
            <path d="M76.1019739,76.0522836 C75.3779546,76.5409788 74.306053,76.7542582 73.3877847,76.7609756 C66.6755968,76.8180741 59.961643,76.7928836 53.2476891,76.7912042 L50.3215919,76.7912042 L50.3215919,76.7962423 C42.6717108,76.7962423 35.0200638,76.7240296 27.3737145,76.8298296 C24.1015008,76.8734931 23.2574003,74.9690931 23.0984693,72.5340137 C22.9501337,70.2786264 24.7990315,68.5942233 27.3242693,68.5908645 C42.6257974,68.579109 57.9255597,68.579109 73.2253219,68.5875058 C75.2578734,68.5891852 76.6547007,69.462455 77.2745318,71.0343407 C77.910256,72.6381344 77.4581855,75.1370296 76.1019739,76.0522836 M26.7538834,64.0784106 C27.2518674,64.0028391 27.7657444,64.0011598 28.270792,64.0011598 C42.7917921,63.9961217 57.3127922,63.9944423 71.8320264,64.0045185 C72.6867222,64.0045185 73.578502,63.9826868 74.3855185,64.1976455 C76.4057087,64.7367217 77.5394169,66.7956233 77.0290716,69.1416963 C75.2967232,67.5748487 73.2712353,67.7763725 71.288129,67.7763725 C58.914464,67.7797312 46.5407989,67.7780518 34.1671339,67.7780518 C33.0740414,67.7780518 31.980949,67.7528614 30.8896225,67.7948455 C28.4032345,67.8905693 25.7791063,67.2121058 23.6158782,69.1064296 C22.9730904,66.748601 24.4970625,64.4193217 26.7538834,64.0784106 M24.2639637,57.2786614 C24.4599786,54.9896868 24.7283955,52.7074296 24.9261764,50.4201344 C25.5936868,42.6547502 26.2294109,34.8876868 26.9110486,27.123982 C27.1635723,24.2522677 28.4985931,23.122055 31.537708,23.1203756 C43.9873067,23.1119788 56.4369055,23.1119788 68.8865043,23.1153376 C72.229354,23.1170169 73.5502476,24.2841756 73.8151327,27.4648931 C74.555045,36.3420169 75.2843619,45.2208201 76.0207424,54.0996233 C76.2732662,57.1325566 76.5363854,60.1654899 76.7853774,63.1984233 C76.8136318,63.5494106 76.7889092,63.9037566 76.7889092,64.2581026 C76.6900187,64.3252772 76.5893624,64.3907725 76.4887061,64.4579471 C75.0212427,63.077509 73.2094288,63.2118582 71.4082102,63.2135376 C57.0072914,63.2219344 42.6063725,63.1950645 28.2054536,63.2521629 C26.7944991,63.257201 25.3870764,63.7542931 23.8701678,64.0431439 C23.8860609,64.1136772 23.7871705,63.9104741 23.7995318,63.7156677 C23.9425698,61.5694391 24.08031,59.4215312 24.2639637,57.2786614 M78.1680775,53.113836 C77.4105062,44.1644995 76.7129754,35.2101249 75.8476842,26.2708645 C75.7311347,25.076836 74.9717975,23.8189915 74.1771423,22.8315249 C73.0487318,21.4326137 71.2934267,21.0110931 69.4639537,21.0094137 C62.0524692,21.0043756 54.6392188,21.0077344 47.2259683,21.0077344 C41.8805874,21.0077344 36.5334406,20.9892614 31.1862938,21.0094137 C27.6615563,21.0228487 25.0374281,23.1506042 24.7478204,26.2624677 C24.3716836,30.2895852 24.0767782,34.3250995 23.7341935,38.357255 C23.3810134,42.5254391 23.0295992,46.6936233 22.6463988,50.8584487 C22.4433202,53.063455 22.1289899,55.2583852 21.9435704,57.4633915 C21.6804512,60.6021249 21.4614795,63.7442169 21.2813576,66.8879883 C21.1453833,69.2894804 20.8716687,71.7128042 21.0694496,74.0958233 C21.2990167,76.8667756 23.7995318,78.9391122 26.9234099,78.8937693 C34.7251584,78.7795725 42.5304388,78.8551439 50.3357192,78.8534645 C58.257549,78.8517852 66.1793788,78.8467471 74.1012086,78.8568233 C76.4816425,78.8585026 78.0744848,77.7434042 79.0792822,75.773509 C79.9127872,74.136128 79.8315558,72.3979852 79.6761565,70.6413693 C79.1569818,64.8005376 78.6625296,58.9580264 78.1680775,53.113836" id="Fill-1"></path>
        </g>
    </g>
</svg>