<?xml version="1.0" encoding="UTF-8" standalone="no"?>
<svg width="175px" height="134px" viewBox="0 0 175 134" version="1.1" xmlns="http://www.w3.org/2000/svg" xmlns:xlink="http://www.w3.org/1999/xlink">
    <!-- Generator: Sketch 3.7.1 (28215) - http://www.bohemiancoding.com/sketch -->
    <title>Group 14</title>
    <desc>Created with Sketch.</desc>
    <defs></defs>
    <g id="Composer" stroke="none" stroke-width="1" fill="none" fill-rule="evenodd">
        <g id="Drag-&amp;-Drop" transform="translate(-833.000000, -392.000000)" stroke-width="2.5">
            <g id="Group-59" transform="translate(199.000000, 67.000000)">
                <g id="Group-14" transform="translate(636.000000, 327.000000)">
                    <g id="Group-67" transform="translate(70.000000, 74.000000)" stroke="#73C1C7">
                        <g id="Group-69">
                            <path d="M18.25,0.494258159 L18.25,54.8626556" id="Line" stroke-linecap="square"></path>
                            <polyline id="Path-1352" points="0 36.0808456 18 55.8511719 36 36.0808456"></polyline>
                        </g>
                    </g>
                    <path d="M34.8583256,103.970788 L24.7118661,103.970788 C13.2993646,103.970788 4.42153622,97.6302222 1.24995856,87.4863517 C-0.652988039,80.5140589 -0.652988039,73.5391771 3.15290516,67.2011999 C6.95620931,60.8606336 13.2993646,57.0573294 20.2742465,55.7886984 L25.3461817,54.5200673 C26.6148127,54.5200673 27.2491283,53.2540253 27.2491283,52.6197098 L28.5177593,48.8164056 C32.3210635,36.7695886 45.0047851,27.2600337 57.6859177,27.2600337 L65.9294306,28.5286647 C67.1980616,28.5286647 67.8323772,28.5286647 69.1010082,27.2600337 L71.0039548,23.4567295 C77.3445211,10.1438704 90.0256537,1.26863107 104.609733,1.70530257e-13 C114.756192,1.70530257e-13 124.902652,3.16898862 133.146165,10.1438704 C140.121047,17.1161632 146.013708,26.2373617 145.192982,37.4039041 C145.151557,42.3101406 142.658309,50.7167632 142.658309,50.7167632 C142.658309,51.9853942 143.92694,53.8883408 144.561255,53.8883408 L150.901822,55.1543828 C161.045692,57.0573294 169.289205,64.0296222 171.192151,74.1734927 C173.52229,95.6004125 156.675387,105.23942 147.730244,105.23942 L136.317742,105.23942" id="Page-1" stroke="#8A8A8A" stroke-linecap="round" stroke-linejoin="round" stroke-dasharray="2,6"></path>
                </g>
            </g>
        </g>
    </g>
</svg>