<?xml version="1.0" encoding="UTF-8" standalone="no"?>
<svg width="100px" height="100px" viewBox="0 0 100 100" version="1.1" xmlns="http://www.w3.org/2000/svg" xmlns:xlink="http://www.w3.org/1999/xlink">
    <!-- Generator: Sketch 3.6.1 (26313) - http://www.bohemiancoding.com/sketch -->
    <title>hangup-blk</title>
    <desc>Created with Sketch.</desc>
    <defs></defs>
    <g id="Page-1" stroke="none" stroke-width="1" fill="none" fill-rule="evenodd">
        <g id="hangup-blk">
            <path d="M92.860262,35.1242934 L87.8671241,30.0878623 C70.2825951,12.7888165 28.1665627,15.1975444 12.9700561,30.0878623 L7.97691828,35.1242934 C6.67436057,36.438145 6.67436057,38.6278976 7.97691828,40.1607245 L17.963194,50.0146113 C19.2657517,51.3284629 21.6537742,51.3284629 22.9563319,50.0146113 L34.0280724,39.2848234 L33.1597006,27.6791344 C36.6331878,24.1755302 64.4210855,24.1755302 67.8945727,27.6791344 L67.2432938,39.7227739 L77.8808484,50.0146113 C79.1834061,51.3284629 81.5714286,51.3284629 82.8739863,50.0146113 L92.860262,40.1607245 C94.3799127,38.6278976 94.3799127,36.438145 92.860262,35.1242934 L92.860262,35.1242934 Z" id="Shape" stroke="#000000" stroke-width="3.62880016"></path>
            <path d="M45.0625,65.1515152 L36,65.1515152 L50.5,83 L65,65.1515152 L55.9375,65.1515152 L55.9375,52 L45.0625,52 L45.0625,65.1515152 Z" id="Combined-Shape" fill="#FF3D2E"></path>
        </g>
    </g>
</svg>