<?xml version="1.0" encoding="UTF-8" standalone="no"?>
<svg width="100px" height="100px" viewBox="0 0 100 100" version="1.1" xmlns="http://www.w3.org/2000/svg" xmlns:xlink="http://www.w3.org/1999/xlink">
    <!-- Generator: Sketch 3.8.3 (29802) - http://www.bohemiancoding.com/sketch -->
    <title>idea-icon</title>
    <desc>Created with Sketch.</desc>
    <defs></defs>
    <g id="ICONS" stroke="none" stroke-width="1" fill="none" fill-rule="evenodd">
        <g id="idea-icon" fill="#FFFFFF">
            <g id="Group-27" transform="translate(29.000000, 18.000000)">
                <path d="M9.26804064,7.59936272 C6.63125539,9.64201688 4.81276494,12.2439418 3.98773308,15.4840844 C2.87974431,19.8343374 3.9607848,23.6830606 6.59135121,27.2497213 C7.63948371,28.6710202 8.53577304,30.2162325 9.36417343,31.7760079 C10.8432192,34.5603537 12.2753647,37.3725481 13.6165597,40.2235772 C14.528137,42.1612244 14.9111135,44.2580428 15.0658069,46.3934403 C15.1373235,47.3842362 15.2813932,48.3711996 15.4228716,49.3556082 C15.5288509,50.0919346 15.3889271,50.2976052 14.6429263,50.3147231 C13.9523767,50.3305636 13.2610497,50.3147231 12.5705001,50.3364399 C12.0911318,50.3512584 11.9063806,50.1729254 11.843674,49.6788049 C11.5721183,47.538042 11.3969545,45.3689196 10.8937473,43.278744 C10.5203582,41.7286774 9.79456851,40.2343079 9.05167707,38.8027893 C7.54931063,35.9085821 5.95988053,33.057042 4.34350215,30.2226198 C3.56381595,28.8554851 2.55895616,27.6114972 1.80362706,26.2331208 C0.794362264,24.3907719 0.24684583,22.3930843 0.0688317321,20.2870682 C-0.435152869,14.3264527 1.84404947,9.51478214 6.22703124,5.55057677 C8.87703151,3.15381146 12.0201334,1.64206853 15.4604437,0.755257703 C17.8834566,0.130581103 20.3849822,-0.151225969 22.8878034,0.0805047781 C28.4251561,0.593276123 33.3385525,2.55391753 37.2787015,6.53089747 C39.5299191,8.80298295 41.0999154,11.4695472 41.9220969,14.5829661 C42.4978572,16.7630746 42.6362263,18.948293 42.3206205,21.1419426 C41.9404943,23.7832133 40.8462388,26.1771682 39.4006192,28.4326467 C37.9394525,30.7129079 36.445637,32.9839714 35.1718127,35.3661737 C33.8588615,37.8209356 32.7677154,40.3937345 31.6389972,42.9402178 C31.350858,43.5906991 31.2396963,44.3306023 31.1316441,45.042146 C30.98887,45.983121 30.9352326,46.9371261 30.8321036,47.8844884 C30.7611053,48.5359916 30.7066905,49.1931156 30.5678032,49.8313333 C30.5258261,50.0249958 30.2343183,50.2950503 30.0441256,50.3060364 C29.2268673,50.3522804 28.4044266,50.3269867 27.5845771,50.304248 C27.0938076,50.2904514 26.8966187,49.9979137 26.9595844,49.5334303 C27.2472054,47.4120847 27.3441156,45.2416848 27.8835994,43.1844677 C28.4233423,41.1257175 29.2659942,39.110912 30.2283586,37.2006024 C31.7802166,34.1196309 33.5201943,31.12987 35.2231181,28.1247795 C35.6835708,27.3123167 36.3440627,26.6120146 36.8304273,25.8113044 C38.5115852,23.0440765 39.2363384,20.0783317 38.7230255,16.843299 C37.9728788,12.1151741 35.2902296,8.73604419 31.2482472,6.29277944 C29.1296981,5.01200079 26.8463498,4.16734605 24.3614078,3.90214592 C23.317162,3.79049615 22.2721389,3.68600015 21.2276341,3.57818276 C16.7653622,3.59325675 12.7666525,4.88859842 9.26804064,7.59936272 Z" id="Fill-1"></path>
                <path d="M15.6042203,60.0948649 C15.6007103,59.3334721 15.9702634,58.7789903 16.6677509,58.5070643 C18.4079597,57.829227 20.1644649,57.192673 21.9164573,56.545242 C23.1050943,56.1059579 24.2962386,55.6738428 25.4878842,55.2432109 C26.4421033,54.8983593 27.3787723,55.2849886 27.7450661,56.1677593 C28.0953142,57.0112242 27.7094647,57.9701341 26.7810692,58.3520665 C25.5144599,58.8729284 24.2205228,59.3287752 22.9366142,59.808601 C21.2635969,60.4337836 19.5898275,61.0572357 17.9148044,61.6772269 C16.7883445,62.0942625 15.6107389,61.2849119 15.6042203,60.0948649" id="Fill-4"></path>
                <path d="M17.4702376,57.2222635 C16.5802014,57.2331405 15.8250496,56.636881 15.6442845,55.8613975 C15.4800665,55.1566148 15.8626567,54.3269934 16.5887257,54.0251555 C17.4311262,53.6748654 18.3041138,53.3937928 19.1725885,53.1080233 C20.3374077,52.7248549 21.5147626,52.3790145 22.6783283,51.9926324 C23.6410716,51.6729957 24.4877342,52.0381182 24.9134473,52.9952977 C25.2451425,53.7413637 24.866313,54.7306799 24.0041061,55.0901166 C23.0679385,55.480454 22.0871437,55.7679539 21.121141,56.0866017 C20.0365504,56.444308 18.947447,56.7881708 17.858845,57.1335168 C17.7013963,57.183205 17.5359248,57.2076784 17.4702376,57.2222635" id="Fill-6"></path>
                <path d="M18.3994855,63.2032756 C18.4110184,62.449299 18.8392386,61.9647763 19.5111533,61.7235038 C20.9357126,61.2125301 22.3773205,60.7482783 23.813162,60.2679582 C24.4025916,60.0706882 24.9897648,59.8630356 25.5879694,59.6939471 C26.4383927,59.4536634 27.2822974,59.8660021 27.6403176,60.6644757 C27.983295,61.4293293 27.7428598,62.3284155 26.9365623,62.7219666 C26.0861389,63.1370245 25.1630084,63.411917 24.2619408,63.7204294 C23.044973,64.1369705 21.8197316,64.52978 20.5962453,64.9275335 C19.5495126,65.2681826 18.4027448,64.3651411 18.3994855,63.2032756" id="Fill-8"></path>
            </g>
        </g>
    </g>
</svg>