<?xml version="1.0" encoding="UTF-8" standalone="no"?>
<svg width="100px" height="100px" viewBox="0 0 100 100" version="1.1" xmlns="http://www.w3.org/2000/svg" xmlns:xlink="http://www.w3.org/1999/xlink">
    <!-- Generator: Sketch 3.8.3 (29802) - http://www.bohemiancoding.com/sketch -->
    <title>licenses-icon-wht</title>
    <desc>Created with Sketch.</desc>
    <defs></defs>
    <g id="Icons/Font" stroke="none" stroke-width="1" fill="none" fill-rule="evenodd">
        <g id="licenses-icon-wht" stroke="#FFFFFF">
            <path d="M39.8982037,23.2463678 C40.405973,23.4640747 41.1248551,23.7393274 41.8139145,24.074777 C43.0129408,24.6584998 44.1964278,25.2741925 45.3810136,25.887078 C45.9095018,26.1604593 46.2959402,26.054101 46.6192801,25.5511606 C47.561047,24.0864733 48.5138012,22.6284918 49.4755022,21.1765924 C50.3190114,19.9032564 51.2938971,19.9051278 52.1389759,21.1775281 C53.1030313,22.6289596 54.0689702,24.0794555 55.0054005,25.5483535 C55.3376872,26.0695401 55.7173762,26.1467357 56.2409986,25.8862983 C57.8490656,25.0867399 59.4613706,24.295447 61.0721059,23.5011909 C62.2154109,22.9372738 62.9721206,23.2477713 63.1256286,24.4825876 C63.3331312,26.1529737 63.4070599,27.8398905 63.5335706,29.5199455 C63.6374789,30.899016 63.6431295,30.8988601 65.0612735,30.9983565 C66.7550413,31.1171908 68.4517913,31.2129444 70.1391237,31.3938471 C71.2290619,31.510654 71.6426545,32.3075612 71.1705154,33.2775735 C70.3654616,34.9315847 69.5327827,36.5723402 68.6944532,38.2099767 C68.4331129,38.7204028 68.4419027,39.0800247 68.9892263,39.422648 C70.4940128,40.365057 71.955792,41.3751486 73.4602646,42.3180254 C74.4852209,42.9603857 74.8259836,44.0773033 73.4569684,44.9177207 C71.9449617,45.8460942 70.4864787,46.8600845 68.9876567,47.8099792 C68.4941708,48.12266 68.4059586,48.4988126 68.6457953,48.9789843 C69.4561857,50.6010257 70.27929,52.2168291 71.0936044,53.8368432 C71.6464216,54.9369182 71.2978109,55.7360087 70.0710025,55.8808867 C68.4130219,56.0766046 66.7391882,56.1399205 65.071476,56.2511133 C63.6710686,56.3443717 63.6417169,56.3697916 63.5365529,57.730304 C63.4025081,59.4618227 63.2916935,61.1958366 63.1138565,62.9229887 C63.0130875,63.9015782 62.2248286,64.3067377 61.2986008,63.8736631 C59.6225697,63.0903236 57.9501486,62.2954438 56.3127299,61.4367802 C55.6935181,61.1120912 55.334705,61.1987997 54.975107,61.7542954 C53.9871935,63.2808951 52.999123,64.8082746 51.9694579,66.3069591 C51.2775732,67.3139317 50.3598213,67.3198578 49.6632277,66.3175638 C48.6396841,64.844767 47.6547529,63.3446789 46.6866165,61.8352337 C46.2982946,61.2298338 45.9581598,61.0829284 45.2526194,61.4654751 C43.650517,62.3341195 41.9889262,63.0968735 40.3369101,63.8717917 C39.3876091,64.3170304 38.6126919,63.911715 38.5015634,62.8646632 C38.3155644,61.1119352 38.2129118,59.3503181 38.0746291,57.5924437 C37.9821789,56.4162649 37.8960073,56.3387575 36.7246062,56.258287 C34.9528288,56.1364896 33.1777551,56.0432312 31.4119422,55.8618608 C30.386515,55.7567501 29.9883045,54.9490823 30.4485146,53.9926378 C31.2465051,52.3344158 32.0705512,50.6878902 32.923792,49.0572715 C33.2256283,48.4800986 33.1166972,48.1251552 32.5847559,47.7850271 C31.0689821,46.8156386 29.5681195,45.8233254 28.0656874,44.8335074 C26.9501645,44.0986685 26.9613088,43.1587547 28.0864063,42.4114398 C29.6032788,41.4041554 31.1033566,40.3702034 32.6465986,39.4045577 C33.1849753,39.0675486 33.1884285,38.6904603 32.963974,38.2414787 C32.1430672,36.598384 31.2871581,34.9725997 30.4662512,33.329349 C29.9757477,32.3473286 30.3643835,31.5150206 31.4215168,31.4028922 C33.1345908,31.2210539 34.8564546,31.1171908 36.575807,30.9982006 C37.957693,30.9026029 37.9923814,30.8717247 38.0907961,29.5031029 C38.2169928,27.7453845 38.3571591,25.9884459 38.4952849,24.2315073 C38.5513201,23.519905 39.0074492,23.2674211 39.8982037,23.2463678" id="Fill-1" stroke-width="2.7"></path>
            <polyline id="Path-717" stroke-width="2.3" points="43.125 63.0207469 39.5 82.8298755 50.375 77.4273859 61.25 82.8298755 57.625 63.0207469"></polyline>
        </g>
    </g>
</svg>