<?xml version="1.0" encoding="UTF-8" standalone="no"?>
<svg width="100px" height="100px" viewBox="0 0 100 100" version="1.1" xmlns="http://www.w3.org/2000/svg" xmlns:xlink="http://www.w3.org/1999/xlink">
    <!-- Generator: Sketch 3.6.1 (26313) - http://www.bohemiancoding.com/sketch -->
    <title>member-add-blk</title>
    <desc>Created with Sketch.</desc>
    <defs></defs>
    <g id="Page-1" stroke="none" stroke-width="1" fill="none" fill-rule="evenodd">
        <g id="member-add-blk" stroke="#000000" stroke-width="2.5">
            <g id="Group" transform="translate(18.000000, 19.000000)">
                <path d="M44.1635685,43.3239623 L38.4294788,40.383934 C38.4294788,40.383934 37.060577,39.4284906 38.90688,38.1993113 C40.7558206,36.9701321 43.8338715,33.6931981 45.2713503,29.1844528 C46.7088291,24.6783396 46.3553939,16.1714717 46.3079176,13.5051792 C46.2630788,10.8388868 44.2453333,7.26189623 41.9875685,5.21414151 C40.0911515,3.49539623 36.0662109,0 30.4481745,0 C24.8090376,0 20.784097,3.49539623 18.8903176,5.21414151 C16.6299152,7.26189623 14.6148073,10.8388868 14.5673309,13.5051792 C14.5198545,16.1714717 14.1664194,24.6783396 15.6038982,29.1844528 C17.041377,33.6931981 20.1220655,36.9701321 21.9683685,38.1993113 C23.8173091,39.4284906 22.4484073,40.383934 22.4484073,40.383934 L4.39683879,49.6356792 C4.39683879,49.6356792 0,51.7229151 0,54.1812736 L0,57.8161698 C0,59.6112453 1.96499394,60.4640377 2.98573576,60.474566 C4.00384,60.4877264 24.7510109,60.7377736 24.7510109,60.7377736 L30.1817794,60.7377736 L30.4376242,60.7377736 L30.6961067,60.7377736 L36.1268752,60.7377736 C36.1268752,60.7377736 38.7486255,60.7061887 42.1721988,60.6640755" id="Stroke-1"></path>
                <path d="M56,43 L56,61" id="Stroke-3"></path>
                <path d="M47,52.25 L65,52.25" id="Stroke-5"></path>
            </g>
        </g>
    </g>
</svg>