<?xml version="1.0" encoding="UTF-8" standalone="no"?>
<svg width="100px" height="100px" viewBox="0 0 100 100" version="1.1" xmlns="http://www.w3.org/2000/svg" xmlns:xlink="http://www.w3.org/1999/xlink">
    <!-- Generator: Sketch 3.6.1 (26313) - http://www.bohemiancoding.com/sketch -->
    <title>menu-blk</title>
    <desc>Created with Sketch.</desc>
    <defs></defs>
    <g id="Page-1" stroke="none" stroke-width="1" fill="none" fill-rule="evenodd">
        <g id="menu-blk" fill="#000000">
            <path d="M9,24.5 C9,23.1192881 10.1198664,22 11.492789,22 L89.0486474,22 C90.4253768,22 91.5414365,23.1096621 91.5414365,24.5 C91.5414365,25.8807119 90.4215701,27 89.0486474,27 L11.492789,27 C10.1160597,27 9,25.8903379 9,24.5 Z M9,49.5 C9,48.1192881 10.1198664,47 11.492789,47 L89.0486474,47 C90.4253768,47 91.5414365,48.1096621 91.5414365,49.5 C91.5414365,50.8807119 90.4215701,52 89.0486474,52 L11.492789,52 C10.1160597,52 9,50.8903379 9,49.5 Z M9,74.5 C9,75.8807119 10.1198664,77 11.492789,77 L89.0486474,77 C90.4253768,77 91.5414365,75.8903379 91.5414365,74.5 C91.5414365,73.1192881 90.4215701,72 89.0486474,72 L11.492789,72 C10.1160597,72 9,73.1096621 9,74.5 Z" id="Combined-Shape"></path>
        </g>
    </g>
</svg>