<?xml version="1.0" encoding="UTF-8" standalone="no"?>
<svg width="100px" height="100px" viewBox="0 0 100 100" version="1.1" xmlns="http://www.w3.org/2000/svg" xmlns:xlink="http://www.w3.org/1999/xlink">
    <!-- Generator: Sketch 3.7.1 (28215) - http://www.bohemiancoding.com/sketch -->
    <title>pin-off-blk</title>
    <desc>Created with Sketch.</desc>
    <defs></defs>
    <g id="Icons/Font" stroke="none" stroke-width="1" fill="none" fill-rule="evenodd">
        <g id="pin-off-blk" fill="#000000">
            <g id="Group" transform="translate(50.500000, 51.000000) rotate(-270.000000) translate(-50.500000, -51.000000) translate(13.000000, 14.000000)">
                <path d="M37.1555556,73.7185185 C36.5925926,73.7185185 35.7481481,73.1555556 35.4666667,73.1555556 L1.12592593,38.8148148 C0.281481481,37.9703704 0.281481481,36.562963 1.12592593,35.7185185 C6.47407407,30.3703704 15.2,28.962963 21.9555556,32.0592593 L39.9703704,14.0444444 L39.9703704,14.0444444 C38.562963,12.637037 37.7185185,10.3851852 37.7185185,8.6962963 C37.7185185,7.00740741 38.562963,4.75555556 39.9703704,3.34814815 L40.8148148,2.5037037 C43.9111111,-0.592592593 48.9777778,-0.592592593 51.5111111,2.5037037 L72.3407407,23.3333333 C73.7481481,24.7407407 74.5925926,26.9925926 74.5925926,28.6814815 C74.5925926,30.3703704 73.7481481,32.3407407 72.3407407,33.7481481 L71.4962963,34.5925926 C68.4,37.6888889 63.3333333,37.6888889 60.8,34.5925926 L60.8,34.5925926 L42.7851852,52.6074074 C45.8814815,59.362963 44.4740741,67.8074074 39.1259259,73.437037 C38,73.7185185 37.7185185,73.7185185 37.1555556,73.7185185 L37.1555556,73.7185185 Z M6.19259259,37.6888889 L36.8740741,68.3703704 C39.9703704,63.8666667 40.5333333,57.9555556 37.437037,53.4518519 C36.8740741,52.6074074 36.8740741,51.762963 38,50.637037 L59.1111111,29.5259259 C59.9555556,28.6814815 61.362963,28.6814815 62.2074074,29.5259259 L63.8962963,31.2148148 C65.3037037,32.6222222 67.5555556,32.6222222 68.4,31.2148148 L69.2444444,30.3703704 C69.8074074,29.8074074 70.0888889,28.962963 70.0888889,28.1185185 C70.0888889,27.2740741 69.5259259,26.4296296 69.2444444,25.8666667 L48.4148148,5.03703704 C47.0074074,3.62962963 44.7555556,3.62962963 43.9111111,5.03703704 L43.0666667,5.88148148 C42.5037037,6.44444444 42.2222222,7.28888889 42.2222222,8.13333333 C42.2222222,8.97777778 42.7851852,9.82222222 43.0666667,10.3851852 L44.7555556,12.0740741 C45.6,12.9185185 45.6,14.3259259 44.7555556,15.1703704 L23.9259259,36 C23.0814815,36.8444444 22.237037,36.8444444 21.1111111,36.562963 C16.6074074,34.3111111 10.6962963,34.5925926 6.19259259,37.6888889 L6.19259259,37.6888889 Z" id="Shape"></path>
                <path d="M21.3925926,56.2666667 L6.47407407,71.1851852 C5.91111111,71.7481481 5.62962963,71.7481481 4.78518519,71.7481481 C3.94074074,71.7481481 3.37777778,71.7481481 3.0962963,71.1851852 C2.25185185,70.3407407 2.25185185,68.9333333 3.0962963,68.0888889 L18.0148148,53.1703704 L21.3925926,56.2666667 L21.3925926,56.2666667 Z" id="Shape"></path>
            </g>
        </g>
    </g>
</svg>