<?xml version="1.0" encoding="UTF-8" standalone="no"?>
<svg width="100px" height="100px" viewBox="0 0 100 100" version="1.1" xmlns="http://www.w3.org/2000/svg" xmlns:xlink="http://www.w3.org/1999/xlink">
    <!-- Generator: Sketch 3.7.1 (28215) - http://www.bohemiancoding.com/sketch -->
    <title>pin-on-blk</title>
    <desc>Created with Sketch.</desc>
    <defs></defs>
    <g id="Icons/Font" stroke="none" stroke-width="1" fill="none" fill-rule="evenodd">
        <g id="pin-on-blk" fill="#000000">
            <path d="M50.1555556,87.7185185 C49.5925926,87.7185185 48.7481481,87.1555556 48.4666667,87.1555556 L14.1259259,52.8148148 C13.2814815,51.9703704 13.2814815,50.562963 14.1259259,49.7185185 C19.4740741,44.3703704 28.2,42.962963 34.9555556,46.0592593 L52.9703704,28.0444444 L52.9703704,28.0444444 C51.562963,26.637037 50.7185185,24.3851852 50.7185185,22.6962963 C50.7185185,21.0074074 51.562963,18.7555556 52.9703704,17.3481481 L53.8148148,16.5037037 C56.9111111,13.4074074 61.9777778,13.4074074 64.5111111,16.5037037 L85.3407407,37.3333333 C86.7481481,38.7407407 87.5925926,40.9925926 87.5925926,42.6814815 C87.5925926,44.3703704 86.7481481,46.3407407 85.3407407,47.7481481 L84.4962963,48.5925926 C81.4,51.6888889 76.3333333,51.6888889 73.8,48.5925926 L73.8,48.5925926 L55.7851852,66.6074074 C58.8814815,73.362963 57.4740741,81.8074074 52.1259259,87.437037 C51,87.7185185 50.7185185,87.7185185 50.1555556,87.7185185 L50.1555556,87.7185185 Z M19.1925926,51.6888889 L49.8740741,82.3703704 C52.9703704,77.8666667 53.5333333,71.9555556 50.437037,67.4518519 C49.8740741,66.6074074 49.8740741,65.762963 51,64.637037 L72.1111111,43.5259259 C72.9555556,42.6814815 74.362963,42.6814815 75.2074074,43.5259259 L76.8962963,45.2148148 C78.3037037,46.6222222 80.5555556,46.6222222 81.4,45.2148148 L82.2444444,44.3703704 C82.8074074,43.8074074 83.0888889,42.962963 83.0888889,42.1185185 C83.0888889,41.2740741 82.5259259,40.4296296 82.2444444,39.8666667 L61.4148148,19.037037 C60.0074074,17.6296296 57.7555556,17.6296296 56.9111111,19.037037 L56.0666667,19.8814815 C55.5037037,20.4444444 55.2222222,21.2888889 55.2222222,22.1333333 C55.2222222,22.9777778 55.7851852,23.8222222 56.0666667,24.3851852 L57.7555556,26.0740741 C58.6,26.9185185 58.6,28.3259259 57.7555556,29.1703704 L36.9259259,50 C36.0814815,50.8444444 35.237037,50.8444444 34.1111111,50.562963 C29.6074074,48.3111111 23.6962963,48.5925926 19.1925926,51.6888889 L19.1925926,51.6888889 Z" id="Shape"></path>
            <path d="M34.3925926,70.2666667 L19.4740741,85.1851852 C18.9111111,85.7481481 18.6296296,85.7481481 17.7851852,85.7481481 C16.9407407,85.7481481 16.3777778,85.7481481 16.0962963,85.1851852 C15.2518519,84.3407407 15.2518519,82.9333333 16.0962963,82.0888889 L31.0148148,67.1703704 L34.3925926,70.2666667 L34.3925926,70.2666667 Z" id="Shape"></path>
        </g>
    </g>
</svg>