<?xml version="1.0" encoding="UTF-8" standalone="no"?>
<svg width="100px" height="100px" viewBox="0 0 100 100" version="1.1" xmlns="http://www.w3.org/2000/svg" xmlns:xlink="http://www.w3.org/1999/xlink">
    <!-- Generator: Sketch 3.8.3 (29802) - http://www.bohemiancoding.com/sketch -->
    <title>rotate-icon-blk</title>
    <desc>Created with Sketch.</desc>
    <defs></defs>
    <g id="Icons/Font" stroke="none" stroke-width="1" fill="none" fill-rule="evenodd">
        <g id="rotate-icon-blk" fill="#000000">
            <path d="M80.9102014,57.65625 L68.518349,46.3997396 C67.6538012,45.5110677 67.6538012,44.0299479 68.518349,43.141276 C69.3828969,42.2526042 70.8238099,42.2526042 71.6883578,43.141276 L82.3511145,53.2128906 L92.1493234,42.2526042 C93.0138712,41.3639323 94.4547843,41.3639323 95.3193321,42.2526042 C96.18388,43.141276 96.18388,44.6223958 95.3193321,45.5110677 L84.3683928,58.2486979 C83.2156623,57.65625 82.9274797,58.2486979 82.3511145,58.2486979 C81.7747493,58.2486979 81.4865667,58.2486979 80.9102014,57.65625 Z" id="Shape"></path>
            <path d="M10.5936435,59.7298177 C10.0172783,59.7298177 9.72909569,59.7298177 9.15273046,59.1373698 C8.28818261,58.2486979 8.28818261,56.7675781 9.15273046,55.8789062 L20.1036698,43.141276 C20.680035,42.5488281 20.9682176,42.2526042 21.5445829,42.2526042 C22.1209481,42.2526042 22.9854959,42.2526042 23.2736786,42.8450521 L35.665531,54.1015625 C36.5300788,54.9902344 36.5300788,56.4713542 35.665531,57.360026 C34.8009831,58.2486979 33.3600701,58.2486979 32.4955222,57.360026 L21.8327655,47.2884115 L12.0345566,58.2486979 C11.746374,59.7298177 10.8818261,59.7298177 10.5936435,59.7298177 L10.5936435,59.7298177 Z" id="Shape"></path>
            <path d="M80.0456536,54.3977865 C80.9102014,46.6959635 79.1811057,38.6979167 74.8583665,32.4772135 C70.2474447,26.2565104 63.9074272,22.109375 55.838314,21.2207031 C48.345566,20.3320312 40.5646354,22.109375 34.5128005,26.5527344 C33.6482527,27.4414062 32.2073396,27.1451823 31.3427918,25.9602865 C30.4782439,25.0716146 30.7664265,23.5904948 31.919157,22.7018229 C38.8355397,17.3697917 47.4810182,15 56.4146792,16.4811198 C65.0601576,17.9622396 73.1292708,22.7018229 78.0283753,29.8111979 C83.2156623,36.9205729 85.5211233,45.8072917 84.0802102,54.9902344 C84.6565754,56.1751302 83.2156623,57.360026 82.3511145,57.360026 C80.9102014,57.360026 80.0456536,55.8789062 80.0456536,54.3977865 Z" id="Shape"></path>
            <path d="M52.09194,84.3164062 C50.3628443,84.3164062 48.9219312,84.3164062 46.9046529,83.7239583 C38.2591745,82.2428385 30.1900613,77.5032552 25.2909569,70.3938802 C20.3918524,63.2845052 17.7982089,54.3977865 19.239122,45.2148437 C19.239122,43.733724 20.680035,42.8450521 22.1209481,43.4375 C23.5618612,43.4375 24.426409,44.9186198 23.8500438,46.3997396 C22.9854959,54.1015625 24.7145916,62.0996094 29.0373308,68.3203125 C33.6482527,74.5410156 39.9882702,78.688151 48.0573834,79.5768229 C55.5501314,80.4654948 63.331062,78.688151 69.3828969,74.2447917 C70.2474447,73.3561198 71.6883578,73.6523437 72.5529056,74.8372396 C73.4174535,75.7259115 73.1292708,77.2070312 71.9765404,78.0957031 C65.9247055,81.9466146 59.0083227,84.3164062 52.09194,84.3164062 L52.09194,84.3164062 Z" id="Shape"></path>
        </g>
    </g>
</svg>