<?xml version="1.0" encoding="UTF-8" standalone="no"?>
<svg width="100px" height="100px" viewBox="0 0 100 100" version="1.1" xmlns="http://www.w3.org/2000/svg" xmlns:xlink="http://www.w3.org/1999/xlink">
    <!-- Generator: Sketch 3.6.1 (26313) - http://www.bohemiancoding.com/sketch -->
    <title>screenshare-blk</title>
    <desc>Created with Sketch.</desc>
    <defs></defs>
    <g id="Page-1" stroke="none" stroke-width="1" fill="none" fill-rule="evenodd">
        <g id="screenshare-blk">
            <g id="Group-48" transform="translate(10.000000, 12.000000)">
                <g id="Group-47" transform="translate(0.000000, 9.556150)">
                    <g id="Group-43">
                        <path d="M16.1868777,62.170088 L54.2736486,62.170088" id="Line" stroke="#000000" stroke-width="3.85020025" stroke-linecap="square"></path>
                        <rect id="Rectangle-1528" fill="#000000" x="30.4694168" y="54.1659479" width="9.52169275" height="8.00414007"></rect>
                        <rect id="Rectangle-1531" stroke="#000000" stroke-width="3.37500013" x="0" y="0" width="70.4605263" height="54.1659479" rx="3.85020025"></rect>
                    </g>
                </g>
                <g id="Group-45" transform="translate(16.578947, 20.251337)">
                    <path d="M30.3467157,11.1638169 C33.3722943,11.1638169 35.8250104,8.66471134 35.8250104,5.58190844 C35.8250104,2.49910553 33.3722943,0 30.3467157,0 C27.3211371,0 24.8684211,2.49910553 24.8684211,5.58190844 C24.8684211,8.66471134 27.3211371,11.1638169 30.3467157,11.1638169 Z" id="Oval" fill="#000000"></path>
                    <path d="M5.47829467,21.859004 C8.50387328,21.859004 10.9565893,19.3598985 10.9565893,16.2770956 C10.9565893,13.1942927 8.50387328,10.6951872 5.47829467,10.6951872 C2.45271607,10.6951872 -8.766321e-13,13.1942927 -8.766321e-13,16.2770956 C-8.766321e-13,19.3598985 2.45271607,21.859004 5.47829467,21.859004 Z" id="Oval" fill="#000000"></path>
                    <path d="M30.3467157,32.5541912 C33.3722943,32.5541912 35.8250104,30.0550857 35.8250104,26.9722828 C35.8250104,23.8894799 33.3722943,21.3903743 30.3467157,21.3903743 C27.3211371,21.3903743 24.8684211,23.8894799 24.8684211,26.9722828 C24.8684211,30.0550857 27.3211371,32.5541912 30.3467157,32.5541912 Z" id="Oval" fill="#000000"></path>
                    <path d="M29.0108884,5.34759358 L5.17865151,16.0427807 L30.0470726,26.7379679" id="Path-3009" stroke="#000000" stroke-width="3.37500013"></path>
                </g>
                <path d="M12.4425659,4.93925134 C12.4425659,2.76385027 14.1501975,0.999144385 16.2557238,0.999144385 L74.9451975,0.999144385 C77.0507238,0.999144385 78.7583554,2.74032086 78.7583554,4.93925134 L78.7583554,46.9499465 C78.7583554,49.1253476 77.0507238,50.8879144 74.9451975,50.8879144" id="Page-1" stroke="#000000" stroke-width="3.37500013"></path>
            </g>
        </g>
    </g>
</svg>