<?xml version="1.0" encoding="UTF-8" standalone="no"?>
<svg width="70px" height="69px" viewBox="0 0 70 69" version="1.1" xmlns="http://www.w3.org/2000/svg" xmlns:xlink="http://www.w3.org/1999/xlink">
    <!-- Generator: Sketch 3.8.3 (29802) - http://www.bohemiancoding.com/sketch -->
    <title>Slice 1</title>
    <desc>Created with Sketch.</desc>
    <defs></defs>
    <g id="Page-1" stroke="none" stroke-width="1" fill="none" fill-rule="evenodd">
        <path d="M28.3834588,55.6738544 C13.0451129,55.6738544 0.263158,43.0207057 0.263158,27.8369272 C0.263158,12.6531487 13.0451129,0 28.3834588,0 C43.7218046,0 56.5037595,12.6531487 56.5037595,27.8369272 C56.5037595,43.0207057 43.7218046,55.6738544 28.3834588,55.6738544 L28.3834588,55.6738544 L28.3834588,55.6738544 Z M28.3834588,5.0612595 C15.6015039,5.0612595 5.37593995,15.1837785 5.37593995,27.8369272 C5.37593995,40.490076 15.6015039,50.612595 28.3834588,50.612595 C41.1654136,50.612595 51.3909775,40.490076 51.3909775,27.8369272 C51.3909775,15.1837785 41.1654136,5.0612595 28.3834588,5.0612595 L28.3834588,5.0612595 L28.3834588,5.0612595 Z" id="Shape" fill="#9A9CA0"></path>
        <path d="M47.0403383,42.574124 L69.0300307,64.6700549 C69.9724461,65.6170233 69.9724461,67.1953041 69.0300307,68.1422726 C68.4017537,68.7735849 67.4593384,68.7735849 67.1451999,68.7735849 C66.516923,68.7735849 65.5745076,68.7735849 65.2603691,68.1422726 L43.2706768,46.0463417 L47.0403383,42.574124 L47.0403383,42.574124 L47.0403383,42.574124 Z" id="Shape" fill="#9A9CA0"></path>
    </g>
</svg>