<?xml version="1.0" encoding="UTF-8" standalone="no"?>
<svg width="100px" height="100px" viewBox="0 0 100 100" version="1.1" xmlns="http://www.w3.org/2000/svg" xmlns:xlink="http://www.w3.org/1999/xlink">
    <!-- Generator: Sketch 3.6.1 (26313) - http://www.bohemiancoding.com/sketch -->
    <title>settings-blk</title>
    <desc>Created with Sketch.</desc>
    <defs></defs>
    <g id="Page-1" stroke="none" stroke-width="1" fill="none" fill-rule="evenodd">
        <g id="settings-blk" stroke="#000000" stroke-width="3">
            <path d="M50.4661212,62.9939278 C43.696537,62.9719552 37.971662,57.1992203 37.9970441,50.4206703 C38.0220475,43.7177616 43.8460518,37.9490676 50.5556533,37.9812689 C57.2877325,38.0137227 63.0339488,43.8426519 62.9990957,50.6042805 C62.9647477,57.2824384 57.1651153,63.0156479 50.4661212,62.9939278 L50.4661212,62.9939278 Z M81.7052369,46.3133077 C81.589565,45.4754441 81.2665424,45.122367 80.4277948,45.0054323 C78.2831923,44.706529 76.1365694,44.4193697 73.9866632,44.1617598 C73.4905116,44.1024085 73.2436354,43.9445593 73.0597727,43.4379265 C72.5735971,42.0979762 72.0125379,40.7822715 71.4171307,39.4865189 C71.2294796,39.078384 71.2429915,38.8274669 71.5119665,38.4844921 C72.8358794,36.7957582 74.1433759,35.0940175 75.437108,33.3820481 C75.6678204,33.0768309 75.8064752,32.7020337 76.0121842,32.3130933 C75.8112738,31.9367808 75.6788067,31.5813043 75.4584492,31.2930086 C73.8141656,29.1418396 71.9065895,27.250301 69.7775194,25.5781096 C68.9710994,24.9446923 68.4577738,24.9208255 67.6362002,25.5503281 C65.9328179,26.8555517 64.2250157,28.1549663 62.5356504,29.4779952 C62.1914128,29.747728 61.9362022,29.7715948 61.524279,29.5848276 C60.187233,28.9785604 58.8274568,28.4181325 57.4550527,27.8968513 C57.0834125,27.755671 56.9289729,27.5990846 56.8813655,27.2131748 C56.616684,25.0640263 56.3213165,22.9186662 56.0485531,20.7705279 C55.9304819,19.841238 55.5359852,19.3837279 54.7112546,19.2780321 C52.0064769,18.9312689 49.3009415,18.893764 46.5935119,19.2512608 C45.3936054,19.4096152 45.0972277,19.7264501 44.9494809,20.9172645 C44.6882089,23.024362 44.3941042,25.1274186 44.1316957,27.2343898 C44.086614,27.596559 43.928891,27.7468314 43.588063,27.8786671 C42.19899,28.4156069 40.8191354,28.9799494 39.4582227,29.5848276 C39.0778692,29.7539157 38.832761,29.7592194 38.5017828,29.4993365 C36.8141853,28.1740345 35.1048678,26.8766403 33.4088097,25.5620721 C32.5944341,24.9308016 32.0841391,24.9157743 31.2621868,25.5496967 C29.1348846,27.1904445 27.247892,29.0730173 25.6009565,31.1956472 C24.9089456,32.0876846 24.9114712,32.5339559 25.6103012,33.4427885 C26.9181766,35.1440241 28.2226424,36.8479116 29.5415041,38.5405602 C29.7621142,38.8235522 29.7824452,39.0351964 29.6261113,39.3798128 C29.0281785,40.6981694 28.4455255,42.0268809 27.9463432,43.3843841 C27.7576818,43.8973308 27.5337885,44.1030399 26.9968486,44.165927 C24.8464373,44.4176018 22.7006984,44.7106962 20.5559696,45.0085893 C19.7487919,45.120599 19.4073325,45.4682461 19.2957016,46.2630485 C18.9010785,49.0716278 18.9044881,51.8831116 19.2876197,54.6923224 C19.4029127,55.5372576 19.8051125,55.9052357 20.6355256,56.0142148 C22.8241996,56.301374 25.0107268,56.6070964 27.2025577,56.8689998 C27.6141022,56.9181225 27.7552825,57.1029955 27.8922956,57.4506425 C28.4385802,58.8360535 28.9997656,60.2165395 29.6030022,61.5777048 C29.7609777,61.9340651 29.7713326,62.1594738 29.5274871,62.4712575 C28.1929668,64.178302 26.8807979,65.902773 25.5615574,67.621814 C24.9253619,68.4509643 24.9259933,68.9348669 25.5735539,69.7679318 C27.2218785,71.8887938 29.1101338,73.7703563 31.2263234,75.4239846 C32.0627979,76.0774803 32.5627379,76.0758387 33.4245946,75.4135034 C35.0760761,74.1445221 36.7389228,72.889684 38.3693157,71.5940577 C38.7849011,71.2638372 39.0767327,71.2207759 39.5774304,71.4612118 C40.8052447,72.0506839 42.0681646,72.5808047 43.3533097,73.0309906 C43.8979526,73.2217987 44.1165422,73.4694326 44.1805658,74.0190004 C44.4212543,76.0863199 44.7009631,78.1490933 44.9643818,80.2137609 C45.0979854,81.260238 45.4758133,81.627711 46.5393381,81.7577787 C49.1837543,82.0811802 51.8274128,82.081559 54.4714501,81.7539903 C55.559852,81.619124 55.9189905,81.2371289 56.0541094,80.1492322 C56.3131084,78.0629708 56.6032984,75.9804978 56.8562359,73.893605 C56.9107886,73.4431665 57.0898528,73.230512 57.5304415,73.0648335 C58.8846614,72.5559277 60.2239803,72.0008036 61.5394325,71.3989561 C61.9521134,71.2101685 62.1944435,71.2483048 62.531862,71.5131127 C64.2198383,72.8379095 65.9259988,74.1395972 67.6301388,75.4436842 C68.4227944,76.0503302 68.9524101,76.0499514 69.7278916,75.4486091 C71.8671904,73.7895508 73.7674422,71.8899303 75.4301627,69.753536 C76.0774707,68.9218601 76.0806277,68.4450292 75.439381,67.6072919 C74.1224135,65.8866093 72.8080979,64.1637799 71.4726936,62.4573668 C71.2291007,62.1459619 71.2341519,61.9210584 71.3926325,61.5633089 C71.9956165,60.2018911 72.5603378,58.8226678 73.101066,57.4351102 C73.2418675,57.0735724 73.4040102,56.9177436 73.8034319,56.8695049 C75.994884,56.6049496 78.1816637,56.3009952 80.3702114,56.0128257 C81.1987303,55.9037203 81.5874182,55.529302 81.7051106,54.6795682 C82.0910203,51.8913198 82.0898838,49.1016823 81.7052369,46.3133077 L81.7052369,46.3133077 Z" id="Page-1"></path>
        </g>
    </g>
</svg>