<?xml version="1.0" encoding="UTF-8" standalone="no"?>
<svg width="100px" height="100px" viewBox="0 0 100 100" version="1.1" xmlns="http://www.w3.org/2000/svg" xmlns:xlink="http://www.w3.org/1999/xlink">
    <!-- Generator: Sketch 3.7.1 (28215) - http://www.bohemiancoding.com/sketch -->
    <title>share-screen-file-blk</title>
    <desc>Created with Sketch.</desc>
    <defs></defs>
    <g id="Icons/Font" stroke="none" stroke-width="1" fill="none" fill-rule="evenodd" stroke-linecap="round" stroke-linejoin="round">
        <g id="share-screen-file-blk" stroke="#000000" stroke-width="5.07386929">
            <g id="Page-1" transform="translate(21.000000, 20.000000)">
                <path d="M48.1387906,41.781376 C49.9135937,41.781376 51.5821291,41.7365543 53.247578,41.7937248 C54.9959244,41.8531822 55.8059402,41.0930426 55.8019717,39.2311124 C55.7768378,27.1159884 55.7746331,15.000407 55.8050583,2.88528295 C55.8094677,1.05216667 55.0598614,0.227081395 53.3088693,0.228910853 C41.775515,0.24125969 30.2421606,0.240802326 18.7088063,0.229368217 C17.0671685,0.227996124 16.2606803,1.02289535 16.2611213,2.7229186 C16.262885,14.9144225 16.2637669,27.1059264 16.2589165,39.2974302 C16.2580346,41.1470116 17.159326,41.8275698 18.8944441,41.8015 C23.063137,41.7392984 27.2331528,41.781376 31.5266331,41.781376" id="Stroke-1"></path>
                <path d="M7.9831748,17.0793109 C6.20087559,17.0793109 4.40182047,17.1159 2.60452913,17.0687915 C0.921001575,17.0244271 0.218576378,17.8348767 0.221222047,19.5541093 C0.240623622,31.7474426 0.241946457,43.940776 0.220340157,56.1341093 C0.217253543,57.8931326 1.03697008,58.6212566 2.64730079,58.6207992 C14.1824189,58.6175977 25.717537,58.6116519 37.2526551,58.6281171 C39.0318677,58.6308612 39.7598677,57.7275667 39.7581039,55.9488767 C39.7448756,43.8314659 39.7470803,31.7145124 39.7532535,19.5975589 C39.7536945,17.7777062 38.9313323,17.0203109 37.1618205,17.0482101 C32.9900409,17.1136132 28.8169386,17.0692488 24.4736315,17.0692488" id="Stroke-3"></path>
            </g>
        </g>
    </g>
</svg>