<?xml version="1.0" encoding="UTF-8" standalone="no"?>
<svg width="100px" height="100px" viewBox="0 0 100 100" version="1.1" xmlns="http://www.w3.org/2000/svg" xmlns:xlink="http://www.w3.org/1999/xlink">
    <!-- Generator: Sketch 3.8.3 (29802) - http://www.bohemiancoding.com/sketch -->
    <title>share-icon-blk</title>
    <desc>Created with Sketch.</desc>
    <defs></defs>
    <g id="Icons/Font" stroke="none" stroke-width="1" fill="none" fill-rule="evenodd">
        <g id="share-icon-blk">
            <path d="M63.3766342,26.7673913 C63.3766342,21.6827899 67.629757,17.3804348 72.6561749,17.3804348 C77.6825927,17.3804348 81.9357155,21.6827899 81.9357155,26.7673913 C81.9357155,31.8519928 77.6825927,36.1543478 72.6561749,36.1543478 C67.629757,36.1543478 63.3766342,31.8519928 63.3766342,26.7673913 Z M72.6561749,22.35 C69.9268982,22.35 68.2893322,24.0065217 68.2893322,26.7673913 C68.2893322,29.5282609 69.9268982,31.1847826 72.6561749,31.1847826 C75.3854515,31.1847826 77.0230175,29.5282609 77.0230175,26.7673913 C77.0230175,24.0065217 75.3854515,22.35 72.6561749,22.35 L72.6561749,22.35 Z" id="Shape" fill="#000000"></path>
            <path d="M64.7412726,69.5608696 C64.7412726,64.4762681 68.9943953,60.173913 74.0208132,60.173913 C79.047231,60.173913 83.3003538,64.4762681 83.3003538,69.5608696 C83.3003538,74.645471 79.047231,78.9478261 74.0208132,78.9478261 C68.9943953,78.9478261 64.7412726,74.645471 64.7412726,69.5608696 Z M74.0208132,65.1434783 C71.2915365,65.1434783 69.6539705,66.8 69.6539705,69.5608696 C69.6539705,72.3217391 71.2915365,73.9782609 74.0208132,73.9782609 C76.7500898,73.9782609 78.3876558,72.3217391 78.3876558,69.5608696 C78.3876558,66.8 76.7500898,65.1434783 74.0208132,65.1434783 L74.0208132,65.1434783 Z" id="Shape" fill="#000000"></path>
            <path d="M12.8850162,50.2347826 C12.8850162,45.1501812 17.138139,40.8478261 22.1645568,40.8478261 C27.1909746,40.8478261 31.4440974,45.1501812 31.4440974,50.2347826 C31.4440974,55.3193841 27.1909746,59.6217391 22.1645568,59.6217391 C17.138139,59.6217391 12.8850162,55.3193841 12.8850162,50.2347826 Z M22.1645568,45.8173913 C19.4352801,45.8173913 17.7977141,47.473913 17.7977141,50.2347826 C17.7977141,52.9956522 19.4352801,54.6521739 22.1645568,54.6521739 C24.8938334,54.6521739 26.5313994,52.9956522 26.5313994,50.2347826 C26.5313994,47.473913 24.8938334,45.8173913 22.1645568,45.8173913 L22.1645568,45.8173913 Z" id="Shape" fill="#000000"></path>
            <g id="Group-2" transform="translate(49.382848, 47.924500) rotate(7.000000) translate(-49.382848, -47.924500) translate(26.382848, 24.924500)" fill="#444444">
                <path d="M19.7823569,33.6634028 C18.4177186,33.6634028 17.5989356,33.0558125 17.5989356,32.043162 L17.5989356,-6.84261605 C17.5989356,-7.85526653 18.4177186,-8.46285681 19.7823569,-8.46285681 C21.1469952,-8.46285681 21.9657782,-7.85526653 21.9657782,-6.84261605 L21.9657782,32.043162 C21.9657782,33.0558125 21.1469952,33.6634028 19.7823569,33.6634028 L19.7823569,33.6634028 Z" id="Shape" transform="translate(19.782357, 12.600273) rotate(-120.000000) translate(-19.782357, -12.600273) "></path>
                <path d="M23.6645556,59.5122446 C22.2999173,59.5122446 21.4811343,58.8706476 21.4811343,57.8013194 L21.4811343,16.7391157 C21.4811343,15.6697875 22.2999173,15.0281905 23.6645556,15.0281905 C25.0291939,15.0281905 25.8479769,15.6697875 25.8479769,16.7391157 L25.8479769,57.8013194 C25.8479769,58.8706476 25.0291939,59.5122446 23.6645556,59.5122446 L23.6645556,59.5122446 Z" id="Shape" transform="translate(23.664556, 37.270218) rotate(-75.000000) translate(-23.664556, -37.270218) "></path>
            </g>
        </g>
    </g>
</svg>