<?xml version="1.0" encoding="UTF-8" standalone="no"?>
<svg width="100px" height="100px" viewBox="0 0 100 100" version="1.1" xmlns="http://www.w3.org/2000/svg" xmlns:xlink="http://www.w3.org/1999/xlink">
    <!-- Generator: Sketch 3.6.1 (26313) - http://www.bohemiancoding.com/sketch -->
    <title>submit-grey</title>
    <desc>Created with Sketch.</desc>
    <defs></defs>
    <g id="Page-1" stroke="none" stroke-width="1" fill="none" fill-rule="evenodd">
        <g id="submit-grey" fill="#8E8E8E">
            <path d="M71.359829,48.6796583 C71.3753478,48.6142129 71.3910915,48.5485426 71.4066103,48.4830972 L24.68406,25.1220241 C24.8023626,25.594985 24.8426215,25.8115619 24.9105443,26.0191429 C27.2581534,33.1978927 29.6266792,40.3701204 31.935379,47.5614645 C32.2230387,48.4576838 32.5972887,48.755224 33.5513563,48.7525253 C45.801297,48.7169913 58.0514626,48.7293607 70.3014032,48.7268869 C70.6542868,48.7268869 71.0069454,48.6960758 71.359829,48.6796583 M24.5542871,75.8952612 C40.361627,67.9912148 55.8916531,60.2254808 71.6420909,52.3497716 C71.2397272,52.2688082 71.1331199,52.2285515 71.0265126,52.2285515 C58.2851439,52.2260776 45.5437752,52.2337241 32.8026314,52.2089853 C32.055031,52.2076359 31.8638576,52.5618506 31.6805561,53.1551319 C30.3101803,57.5863007 28.9166388,62.0102727 27.5280453,66.4355941 C26.5683549,69.4951089 25.6050659,72.5532743 24.5542871,75.8952612 M20.1010717,78.5890916 C21.0924744,75.332566 22.124136,72.0884098 23.1443271,68.8406552 C25.0389678,62.809111 26.9520511,56.7834142 28.8073326,50.7397255 C28.976015,50.1898495 28.9150644,49.4850186 28.7344618,48.9250222 C25.9212892,40.2027962 23.0620101,31.4951886 20.2488375,22.7729627 C20.0664356,22.2075687 19.9976132,21.4910431 20.1806898,20.9472393 C20.5194041,19.9410448 21.6210126,19.7325642 22.8415984,20.340464 C28.5698278,23.1937472 34.2926593,26.0576005 40.0168402,28.9192049 C53.0717333,35.4455251 66.1261765,41.9729697 79.1806197,48.5001895 C79.4484874,48.6340039 79.7219778,48.7583726 79.9797245,48.9095042 C81.3343566,49.7040694 81.3509999,51.2844289 79.9642057,52.0380627 C78.4195247,52.8773827 76.8278376,53.6305667 75.2545931,54.4170356 C57.8796314,63.1012538 40.5044448,71.785247 23.127234,80.4649672 C22.6643695,80.6961626 22.1760902,80.8767558 21.8882055,81 C20.4723979,80.9772853 19.7126524,79.8656136 20.1010717,78.5890916 Z" id="Fill-1"></path>
        </g>
    </g>
</svg>