<?xml version="1.0" encoding="UTF-8" standalone="no"?>
<svg width="100px" height="100px" viewBox="0 0 100 100" version="1.1" xmlns="http://www.w3.org/2000/svg" xmlns:xlink="http://www.w3.org/1999/xlink">
    <!-- Generator: Sketch 3.8.3 (29802) - http://www.bohemiancoding.com/sketch -->
    <title>task-icon</title>
    <desc>Created with Sketch.</desc>
    <defs></defs>
    <g id="ICONS" stroke="none" stroke-width="1" fill="none" fill-rule="evenodd">
        <g id="task-icon" fill="#FFFFFF">
            <path d="M33.9147784,66.4627357 L23.5427238,53.0695914 C22.8190921,52.135186 22.8190921,50.5778436 23.5427238,49.6434382 C24.2663555,48.7090328 25.4724084,48.7090328 26.1960401,49.6434382 L36.5680947,63.0365825 C37.7741476,64.5939249 39.221411,64.9053933 40.9098851,64.9053933 C42.3571485,64.9053933 44.0456225,63.9709879 45.2516754,63.0365825 L76.0855133,29.7008041 C76.809145,28.7663986 78.0151979,28.7663986 78.7388296,29.7008041 C79.4624613,30.6352095 79.4624613,32.1925518 78.7388296,33.1269573 L47.9049917,66.4627357 C46.2165177,68.3315465 43.5632014,69.8888889 40.9098851,69.8888889 C38.2565688,69.8888889 35.844463,68.3315465 33.9147784,66.4627357 Z" id="Shape"></path>
        </g>
    </g>
</svg>