<?xml version="1.0" encoding="UTF-8" standalone="no"?>
<svg width="100px" height="100px" viewBox="0 0 100 100" version="1.1" xmlns="http://www.w3.org/2000/svg" xmlns:xlink="http://www.w3.org/1999/xlink">
    <!-- Generator: Sketch 3.6.1 (26313) - http://www.bohemiancoding.com/sketch -->
    <title>video-hide-blk</title>
    <desc>Created with Sketch.</desc>
    <defs></defs>
    <g id="Page-1" stroke="none" stroke-width="1" fill="none" fill-rule="evenodd">
        <g id="video-hide-blk">
            <g id="Group" transform="translate(10.000000, 12.000000)">
                <g id="Group-44" transform="translate(0.000000, 17.000000)">
                    <path d="M39.6825922,41.3494944 C27.2675384,41.3632978 16.8847307,37.0566385 7.58071443,29.6028052 C5.25974621,27.7416474 3.09992525,25.6504331 0.91548457,23.6075306 C-0.295358061,22.4710511 -0.30207253,21.2747569 0.877435911,20.0853643 C10.2306917,10.6553449 20.9134123,3.99290628 34.0334853,2.58495998 C45.1504083,1.39096631 55.4884529,3.96990062 65.0565717,10.0594984 C69.2866873,12.7511604 73.1810795,15.9006351 76.7710824,19.4803155 C78.6847062,21.3897852 78.6600865,22.3215143 76.7285575,24.2240823 C70.784014,30.0813229 64.2083104,34.8941066 56.5694825,37.9745643 C50.9360427,40.2452228 45.1078834,41.3748006 39.6825922,41.3494944" id="Page-1" stroke="#000000" stroke-width="3.78000017"></path>
                    <path d="M46.7648221,19.8840911 C46.9192593,20.5149052 47.0012851,21.1752942 47.0012851,21.8553755 C47.0012851,26.3023615 43.4940864,29.9073559 39.1677376,29.9073559 C34.8413888,29.9073559 31.3341901,26.3023615 31.3341901,21.8553755 C31.3341901,17.4083895 34.8413888,13.803395 39.1677376,13.803395 C39.8293698,13.803395 40.4718438,13.8877081 41.0855452,14.0464517 C39.3194951,14.6625479 38.0486594,16.3809892 38.0486594,18.4045267 C38.0486594,20.9456616 40.0527729,23.0056584 42.5249723,23.0056584 C44.4936155,23.0056584 46.1654392,21.6993864 46.7648221,19.8840911 Z" id="Combined-Shape" fill="#000000"></path>
                    <ellipse id="Oval-909" stroke="#000000" stroke-width="3.78000017" cx="39.1677376" cy="21.8553755" rx="16.7861733" ry="17.2542438"></ellipse>
                </g>
                <path d="M77.8857143,1.1 L1.98330659,76.0293007" id="Line" stroke="#000000" stroke-width="3.75" stroke-linecap="square"></path>
            </g>
        </g>
    </g>
</svg>