<?xml version="1.0" encoding="UTF-8" standalone="no"?>
<svg width="100px" height="100px" viewBox="0 0 100 100" version="1.1" xmlns="http://www.w3.org/2000/svg" xmlns:xlink="http://www.w3.org/1999/xlink">
    <!-- Generator: Sketch 3.6.1 (26313) - http://www.bohemiancoding.com/sketch -->
    <title>video-on-grey</title>
    <desc>Created with Sketch.</desc>
    <defs></defs>
    <g id="Page-1" stroke="none" stroke-width="1" fill="none" fill-rule="evenodd">
        <g id="video-on-grey">
            <g id="Group-44" transform="translate(10.000000, 31.000000)">
                <path d="M7.58071443,27.6028052 C5.25974621,25.7416474 3.09992525,23.6504331 0.91548457,21.6075306 C-0.295358061,20.4710511 -0.30207253,19.2747569 0.877435911,18.0853643 C10.2306917,8.65534495 20.9134123,1.99290628 34.0334853,0.584959983 C45.1504083,-0.609033688 55.4884529,1.96990062 65.0565717,8.0594984 C69.2866873,10.7511604 73.1810795,13.9006351 76.7710824,17.4803155 C78.6847062,19.3897852 78.6600865,20.3215143 76.7285575,22.2240823 C70.784014,28.0813229 64.2083104,32.8941066 56.5694825,35.9745643 C50.9360427,38.2452228 45.1078834,39.3748006 39.6825922,39.3494944 C27.2675384,39.3632978 16.8847307,35.0566385 7.58071443,27.6028052 Z" id="Page-1" stroke="#8E8E8E" stroke-width="3.78000017"></path>
                <path d="M46.7648221,17.8840911 C46.9192593,18.5149052 47.0012851,19.1752942 47.0012851,19.8553755 C47.0012851,24.3023615 43.4940864,27.9073559 39.1677376,27.9073559 C34.8413888,27.9073559 31.3341901,24.3023615 31.3341901,19.8553755 C31.3341901,15.4083895 34.8413888,11.803395 39.1677376,11.803395 C39.8293698,11.803395 40.4718438,11.8877081 41.0855452,12.0464517 C39.3194951,12.6625479 38.0486594,14.3809892 38.0486594,16.4045267 C38.0486594,18.9456616 40.0527729,21.0056584 42.5249723,21.0056584 C44.4936155,21.0056584 46.1654392,19.6993864 46.7648221,17.8840911 Z" id="Combined-Shape" fill="#8E8E8E"></path>
                <ellipse id="Oval-909" stroke="#8E8E8E" stroke-width="3.78000017" cx="39.1677376" cy="19.8553755" rx="16.7861733" ry="17.2542438"></ellipse>
            </g>
        </g>
    </g>
</svg>