<?xml version="1.0" encoding="UTF-8" standalone="no"?>
<svg width="100px" height="100px" viewBox="0 0 100 100" version="1.1" xmlns="http://www.w3.org/2000/svg" xmlns:xlink="http://www.w3.org/1999/xlink">
    <!-- Generator: Sketch 3.6.1 (26313) - http://www.bohemiancoding.com/sketch -->
    <title>whiteboard-wht</title>
    <desc>Created with Sketch.</desc>
    <defs></defs>
    <g id="Page-1" stroke="none" stroke-width="1" fill="none" fill-rule="evenodd">
        <g id="whiteboard-wht">
            <g id="Group-60" transform="translate(21.000000, 15.000000)">
                <path d="M5.57692308,8.75 L0,8.75 L3.82466616e-15,70 L50.1923077,70 L50.1923077,64.53125" id="Path-2908" stroke="#FFFFFF" stroke-width="3"></path>
                <g id="Group-13" transform="translate(7.923077, 0.000000)" stroke-width="3" stroke="#FFFFFF">
                    <g id="document">
                        <path d="M48.7113042,60.8181551 L0.996923153,60.8181551 L0.996923153,0 L35.9343394,0 L48.7113042,12.4388465 L48.7113042,60.8181551 Z" id="Shape"></path>
                    </g>
                </g>
                <g id="Page-1" transform="translate(18.271062, 8.155093)" fill="#FFFFFF">
                    <g id="Group-3" transform="translate(0.000000, 0.070862)" stroke="#FFFFFF" stroke-width="0.5">
                        <path d="M6.23962469,5.01458413 C4.46443201,6.35312098 3.24014916,8.05814404 2.68470365,10.1813866 C1.93875987,13.0320767 2.66656096,15.5541179 4.43756687,17.8913254 C5.14321294,18.8226926 5.74663191,19.8352593 6.30434526,20.8573691 C7.30009996,22.6819313 8.2642794,24.5247424 9.16722725,26.3930017 C9.78093872,27.6627282 10.0387743,29.0367585 10.1429203,30.4360694 C10.1910682,31.085331 10.2880619,31.7320812 10.383311,32.3771571 C10.4546606,32.8596666 10.3604582,32.9944411 9.85821961,33.0056584 C9.39331311,33.0160385 8.92788327,33.0056584 8.46297677,33.0198892 C8.14024618,33.0295997 8.01586407,32.9127393 7.97364742,32.5889457 C7.7908249,31.1861188 7.6728974,29.7647082 7.33411751,28.3950309 C7.08273655,27.3792832 6.59410499,26.4000334 6.0939598,25.4619694 C5.0825047,23.5654158 4.01243473,21.6968217 2.92422208,19.8394449 C2.39930514,18.9435711 1.72279205,18.1283946 1.21427331,17.2251543 C0.534794583,16.0178761 0.166183917,14.7088055 0.0463374767,13.328748 C-0.292965763,9.42279869 1.24148735,6.26974495 4.19229162,3.67202915 C5.9763812,2.10144575 8.09244717,1.11081128 10.4086061,0.529690401 C12.0398784,0.120344233 13.7240087,-0.0643219526 15.4090113,0.0875295708 C19.1369857,0.423545015 22.444887,1.70833949 25.097558,4.31442639 C26.6131706,5.80330797 27.6701569,7.55068873 28.2236835,9.59089013 C28.6113091,11.0194999 28.7044648,12.4514581 28.491986,13.8889412 C28.2360693,15.6197472 27.4993714,17.1884889 26.5261206,18.6664881 C25.5424029,20.1607272 24.5367046,21.6489391 23.6791134,23.2099795 C22.7951805,24.8185676 22.0605759,26.5045046 21.3006762,28.1731971 C21.106689,28.5994529 21.0318504,29.0843062 20.9591052,29.5505758 C20.8629838,30.1671901 20.8268728,30.7923429 20.7574421,31.4131427 C20.7096431,31.8400682 20.6730088,32.2706769 20.5795042,32.6888964 C20.5512435,32.8158021 20.3549884,32.9927669 20.2269428,32.999966 C19.6767308,33.0302694 19.1230298,33.0136946 18.5710732,32.9987941 C18.2406669,32.9897533 18.1079112,32.7980554 18.1503023,32.4936827 C18.3439407,31.1035799 18.4091846,29.6813322 18.7723874,28.3332523 C19.1357646,26.9841679 19.7030726,25.66388 20.3509761,24.4120676 C21.3957509,22.3931288 22.5671757,20.4339595 23.7136543,18.4647449 C24.0236502,17.9323438 24.4683206,17.4734408 24.7957613,16.948741 C25.9275862,15.1353961 26.4155199,13.1919645 26.0699365,11.0720703 C25.5649068,7.97376348 23.7588366,5.75944347 21.0376072,4.15838932 C19.6113124,3.31910411 18.0740681,2.76560782 16.4011026,2.59182404 C15.6980732,2.51866074 14.9945205,2.45018525 14.2913167,2.37953327 C11.2871311,2.38941115 8.59503464,3.2382394 6.23962469,5.01458413 Z" id="Fill-1"></path>
                    </g>
                    <path d="M8.85753659,40.1996995 C8.8545959,39.6840405 9.16420796,39.3085135 9.74856397,39.1243496 C11.2065133,38.6652792 12.6781158,38.2341682 14.1459375,37.7956906 C15.1417793,37.4981822 16.1397215,37.205529 17.1380839,36.9138803 C17.93753,36.680327 18.7222726,36.9421746 19.0291541,37.5400376 C19.3225924,38.1112806 18.9993271,38.7607096 18.2215161,39.0193762 C17.1603491,39.3721338 16.0762868,39.6808595 15.0006264,40.0058251 C13.5989702,40.4292347 12.1966838,40.8514723 10.7933472,41.2713661 C9.84959749,41.5538066 8.86299786,41.0056678 8.85753659,40.1996995" id="Fill-4"></path>
                    <path d="M10.4208885,38.2542086 C9.6752149,38.2615751 9.04254765,37.8577539 8.8911024,37.3325519 C8.75352038,36.8552325 9.07405498,36.2933651 9.68235656,36.0889431 C10.3881208,35.8517065 11.1195111,35.661348 11.8471204,35.4678084 C12.8230076,35.2083047 13.8093971,34.9740817 14.784234,34.7124015 C15.5908218,34.4959252 16.3001569,34.7432071 16.6568199,35.3914641 C16.9347146,35.896743 16.6173307,36.5667648 15.8949726,36.810196 C15.11065,37.0745549 14.2889388,37.2692664 13.4796204,37.4850731 C12.5709489,37.7273323 11.6584965,37.960216 10.7464642,38.1941042 C10.6145535,38.2277559 10.4759213,38.2443307 10.4208885,38.2542086" id="Fill-6"></path>
                    <path d="M11.1994137,42.304894 C11.2090759,41.7942577 11.5678394,41.466111 12.1307704,41.3027074 C13.3242682,40.9566467 14.5320493,40.6422286 15.7349993,40.3169282 C16.2288243,40.1833256 16.7207588,40.0426914 17.2219354,39.9281749 C17.9344213,39.765441 18.6414458,40.0447004 18.9413956,40.5854727 C19.2287425,41.1034755 19.0273056,41.7123884 18.3517884,41.9789239 C17.6393026,42.260025 16.8659026,42.4461979 16.1109868,42.6551403 C15.0914095,42.9372459 14.0649006,43.2032791 13.039862,43.4726607 C12.1629079,43.7033678 11.2021443,43.0917762 11.1994137,42.304894" id="Fill-8"></path>
                </g>
            </g>
        </g>
    </g>
</svg>