<?xml version="1.0" encoding="UTF-8" standalone="no"?>
<svg width="100px" height="100px" viewBox="0 0 100 100" version="1.1" xmlns="http://www.w3.org/2000/svg" xmlns:xlink="http://www.w3.org/1999/xlink">
    <!-- Generator: Sketch 3.8.3 (29802) - http://www.bohemiancoding.com/sketch -->
    <title>whiteboard-single-blk</title>
    <desc>Created with Sketch.</desc>
    <defs></defs>
    <g id="Icons/Font" stroke="none" stroke-width="1" fill="none" fill-rule="evenodd">
        <g id="whiteboard-single-blk">
            <polygon id="Shape" stroke="#8E8E8E" stroke-width="3" points="74.7113042 80.8181551 26.9969232 80.8181551 26.9969232 20 61.9343394 20 74.7113042 32.4388465"></polygon>
            <g id="Group-3" transform="translate(37.000000, 32.064670)" stroke="#8E8E8E" stroke-width="0.5" fill="#8E8E8E">
                <path d="M5.69437971,4.57638841 C4.07431092,5.79795821 2.95701112,7.35398909 2.45010281,9.29169369 C1.76934277,11.8932783 2.4335455,14.1949328 4.04979337,16.3279052 C4.69377708,17.1778856 5.24446674,18.1019699 5.75344472,19.0347633 C6.66218613,20.6998875 7.54211147,22.381666 8.36615589,24.0866688 C8.92623863,25.2454412 9.16154343,26.4994028 9.25658874,27.776436 C9.30052929,28.3689623 9.3890472,28.9591968 9.47597306,29.5479033 C9.54108785,29.988249 9.45511722,30.1112463 8.99676639,30.1214834 C8.5724854,30.1309565 8.1477268,30.1214834 7.72344582,30.1344707 C7.4289168,30.1433326 7.31540373,30.036684 7.27687615,29.7411848 C7.11002944,28.460943 7.00240695,27.1637412 6.69323108,25.9137522 C6.46381686,24.9867648 6.01788401,24.093086 5.56144364,23.236994 C4.63837379,21.5061694 3.6618111,19.800861 2.6686911,18.1057897 C2.18964364,17.2882012 1.57224714,16.5442583 1.10816494,15.719947 C0.488061955,14.6181659 0.151662058,13.4234874 0.0422883107,12.1640252 C-0.267365167,8.59939441 1.1330009,5.72186794 3.82595132,3.3511516 C5.45413956,1.91781247 7.38529467,1.01374386 9.49905776,0.483403798 C10.9877825,0.109828041 12.5247464,-0.0587012265 14.0625062,0.0798808641 C17.4647144,0.386533847 20.4835572,1.55905751 22.9044265,3.93741343 C24.2875984,5.2961902 25.2522207,6.89087739 25.7573778,8.7527973 C26.111131,10.056569 26.1961464,11.3633966 26.0022349,12.6752663 C25.7686813,14.2548272 25.0963592,15.6864856 24.2081552,17.0353309 C23.3103989,18.398997 22.3925828,19.7571626 21.6099317,21.1817926 C20.8032406,22.6498154 20.1328288,24.1884281 19.4393324,25.7113031 C19.2622966,26.1003109 19.1939977,26.5427957 19.1276093,26.9683206 C19.0398874,27.5310525 19.006932,28.1015768 18.9435684,28.6681285 C18.8999463,29.0577474 18.8665133,29.4507277 18.7811795,29.8324014 C18.7553883,29.9482176 18.5762828,30.1097184 18.4594264,30.1162885 C17.9572943,30.1439438 17.451978,30.1288174 16.9482538,30.1152189 C16.6467197,30.1069682 16.5255648,29.9320216 16.5642516,29.6542463 C16.740969,28.3856166 16.8005116,27.087651 17.1319762,25.857372 C17.4635999,24.6261763 17.9813342,23.4212608 18.5726211,22.2788371 C19.5260991,20.4363218 20.5951598,18.6483531 21.6414542,16.8512169 C21.9243613,16.3653392 22.3301745,15.9465371 22.629002,15.4676878 C23.6619233,13.8128007 24.1072193,12.0391944 23.7918344,10.1045456 C23.3309363,7.27698207 21.6826883,5.25615877 19.1992515,3.79501155 C17.8975924,3.02906665 16.4946791,2.52393723 14.9679044,2.36533942 C14.3263087,2.29856944 13.6842355,2.23607762 13.0424806,2.17159952 C10.3008135,2.18061423 7.8439639,2.95526825 5.69437971,4.57638841 Z" id="Fill-1"></path>
            </g>
            <path d="M45.8966929,67.7054973 C47.2272405,67.2865424 48.5702481,66.8931037 49.9098052,66.4929422 C50.8186261,66.2214313 51.7293639,65.9543514 52.6404851,65.6881882 C53.3700722,65.4750438 54.0862407,65.71401 54.3663055,66.2596292 C54.6341019,66.7809546 54.339085,67.3736337 53.6292424,67.6096969 C52.6608047,67.931629 51.6714724,68.213377 50.6898078,68.5099457 C49.4106342,68.896356 48.1308856,69.2816967 46.8501785,69.6648983 C45.9888977,69.9226579 45.0885114,69.4224179 45.0835273,68.6868785 C45.0808436,68.21628 45.3634004,67.8735682 45.8966929,67.7054973 Z" id="Fill-4" fill="#8E8E8E"></path>
            <path d="M46.5102668,66.9113929 C45.8297534,66.9181157 45.2523713,66.5495821 45.11416,66.0702745 C44.9886005,65.6346653 45.2811254,65.1218963 45.836271,64.9353376 C46.4803626,64.7188317 47.1478408,64.5451075 47.8118686,64.3684803 C48.7024785,64.1316531 49.6026732,63.9178975 50.4923247,63.679084 C51.2284294,63.4815243 51.8757797,63.7071977 52.201276,64.2988073 C52.4548871,64.7599327 52.1652376,65.3714051 51.5060022,65.5935643 C50.7902171,65.8348224 50.0403104,66.0125192 49.3017137,66.2094677 C48.4724458,66.4305573 47.6397274,66.6430906 46.8073924,66.8565407 C46.6870086,66.8872518 46.5604906,66.9023782 46.5102668,66.9113929" id="Fill-6" fill="#8E8E8E"></path>
            <path d="M47.2207612,70.6081122 C47.2295791,70.1420974 47.5569923,69.8426256 48.070732,69.6935009 C49.1599369,69.3776804 50.262177,69.0907376 51.3600081,68.7938633 C51.8106805,68.6719355 52.2596276,68.5435904 52.7170093,68.4390809 C53.3672351,68.2905673 54.0124769,68.5454239 54.2862158,69.0389412 C54.5484531,69.5116788 54.3646186,70.0673823 53.748131,70.3106267 C53.0979052,70.567164 52.3920882,70.7370684 51.7031402,70.9277524 C50.7726579,71.1852065 49.8358497,71.4279925 48.9003833,71.6738344 C48.1000612,71.8843814 47.2232532,71.3262333 47.2207612,70.6081122" id="Fill-8" fill="#8E8E8E"></path>
        </g>
    </g>
</svg>