<?xml version="1.0" encoding="UTF-8" standalone="no"?>
<svg width="100px" height="100px" viewBox="0 0 100 100" version="1.1" xmlns="http://www.w3.org/2000/svg" xmlns:xlink="http://www.w3.org/1999/xlink">
    <!-- Generator: Sketch 3.6.1 (26313) - http://www.bohemiancoding.com/sketch -->
    <title>workspace-wht</title>
    <desc>Created with Sketch.</desc>
    <defs></defs>
    <g id="Page-1" stroke="none" stroke-width="1" fill="none" fill-rule="evenodd">
        <g id="workspace-wht">
            <g id="Group-61" transform="translate(23.000000, 11.000000)">
                <g id="Group">
                    <path d="M27.8409091,9.79355074 C25.9659091,9.79355074 24.4318182,8.32451813 24.4318182,6.52903383 L12.5,6.52903383 L12.5,13.0580677 C12.5,14.853552 14.0340909,16.3225846 15.9090909,16.3225846 L39.7727273,16.3225846 C41.6477273,16.3225846 43.1818182,14.853552 43.1818182,13.0580677 L43.1818182,6.52903383 L31.25,6.52903383 C31.25,8.32451813 29.7159091,9.79355074 27.8409091,9.79355074 Z" id="Shape" fill="#FFFFFF"></path>
                    <g id="document" transform="translate(0.000000, 10.000000)" stroke="#FFFFFF" stroke-width="3">
                        <path d="M53.4730132,64.506463 L-4.26325641e-13,64.506463 L-4.26325641e-13,8.68336511e-09 L53.4730148,0 L53.4730132,64.506463 Z" id="Shape"></path>
                    </g>
                    <path d="M27.8409091,0 C24.0909091,0 21.0227273,2.93806522 21.0227273,6.52903383 C21.0227273,10.1200024 24.0909091,13.0580677 27.8409091,13.0580677 C31.5909091,13.0580677 34.6590909,10.1200024 34.6590909,6.52903383 C34.6590909,2.93806522 31.5909091,0 27.8409091,0 L27.8409091,0 Z M27.8409091,9.79355074 C25.9659091,9.79355074 24.4318182,8.32451813 24.4318182,6.52903383 C24.4318182,4.73354952 25.9659091,3.26451691 27.8409091,3.26451691 C29.7159091,3.26451691 31.25,4.73354952 31.25,6.52903383 C31.25,8.32451813 29.7159091,9.79355074 27.8409091,9.79355074 L27.8409091,9.79355074 Z" id="Shape" fill="#FFFFFF"></path>
                </g>
                <g id="todo_list" transform="translate(12.500000, 32.500000)" fill="#FFFFFF">
                    <path d="M26.2560927,0.410078182 C26.2560927,0.410078182 16.719079,9.62674357 14.6127353,11.6109919 C13.2858282,12.860984 10.6320141,15.3609683 10.6320141,15.3609683 L3.6302703,8.68688358 L0.568181794,11.6109914 L10.6320141,21.3420979 C10.6320141,21.3420979 16.7920942,15.4595971 19.8721342,12.5183467 C21.2460411,11.2063494 29.3181812,3.33418598 29.3181812,3.33418598 L26.2560927,0.410078182 Z" id="Combined-Shape"></path>
                </g>
            </g>
        </g>
    </g>
</svg>