<?xml version="1.0" encoding="UTF-8" standalone="no"?>
<svg width="100px" height="100px" viewBox="0 0 100 100" version="1.1" xmlns="http://www.w3.org/2000/svg" xmlns:xlink="http://www.w3.org/1999/xlink">
    <!-- Generator: Sketch 3.8.3 (29802) - http://www.bohemiancoding.com/sketch -->
    <title>zoom-plus-icon-blk</title>
    <desc>Created with Sketch.</desc>
    <defs></defs>
    <g id="Icons/Font" stroke="none" stroke-width="1" fill="none" fill-rule="evenodd">
        <g id="zoom-plus-icon-blk" fill="#000000">
            <path d="M42.7775181,72.9216216 C27.7963847,72.9216216 15.3121069,60.272973 15.3121069,45.0945946 C15.3121069,29.9162162 27.7963847,17.2675676 42.7775181,17.2675676 C57.7586514,17.2675676 70.2429292,29.9162162 70.2429292,45.0945946 C70.2429292,60.272973 57.7586514,72.9216216 42.7775181,72.9216216 L42.7775181,72.9216216 Z M42.7775181,22.327027 C30.2932403,22.327027 20.3058181,32.4459459 20.3058181,45.0945946 C20.3058181,57.7432432 30.2932403,67.8621622 42.7775181,67.8621622 C55.2617958,67.8621622 65.2492181,57.7432432 65.2492181,45.0945946 C65.2492181,32.4459459 55.2617958,22.327027 42.7775181,22.327027 L42.7775181,22.327027 Z" id="Shape"></path>
            <path d="M62.7523625,61.8540541 L84.5998486,83.9891892 C85.5361695,84.9378378 85.5361695,86.5189189 84.5998486,87.4675676 C83.9756347,88.1 83.0393139,88.1 82.727207,88.1 C82.1029931,88.1 81.1666722,88.1 80.8545653,87.4675676 L59.0070792,65.3324324 L62.7523625,61.8540541 L62.7523625,61.8540541 Z" id="Shape"></path>
            <path d="M50.2680847,47.6243243 L35.2869514,47.6243243 C33.7264167,47.6243243 32.7900958,46.6756757 32.7900958,45.0945946 C32.7900958,43.5135135 33.7264167,42.5648649 35.2869514,42.5648649 L50.2680847,42.5648649 C51.8286195,42.5648649 52.7649403,43.5135135 52.7649403,45.0945946 C52.7649403,46.6756757 51.8286195,47.6243243 50.2680847,47.6243243 L50.2680847,47.6243243 Z" id="Shape"></path>
            <path d="M42.7775181,55.2135135 C41.2169833,55.2135135 40.2806625,54.2648649 40.2806625,52.6837838 L40.2806625,37.5054054 C40.2806625,35.9243243 41.2169833,34.9756757 42.7775181,34.9756757 C44.3380528,34.9756757 45.2743736,35.9243243 45.2743736,37.5054054 L45.2743736,52.6837838 C45.2743736,54.2648649 44.3380528,55.2135135 42.7775181,55.2135135 L42.7775181,55.2135135 Z" id="Shape"></path>
        </g>
    </g>
</svg>