<?xml version="1.0" encoding="UTF-8" standalone="no"?>
<svg width="28px" height="25px" viewBox="0 0 28 25" version="1.1" xmlns="http://www.w3.org/2000/svg" xmlns:xlink="http://www.w3.org/1999/xlink">
    <!-- Generator: Sketch 3.6.1 (26313) - http://www.bohemiancoding.com/sketch -->
    <title>camera</title>
    <desc>Created with Sketch.</desc>
    <defs></defs>
    <g id="Page-1" stroke="none" stroke-width="1" fill="none" fill-rule="evenodd">
        <g id="Artboard-40" transform="translate(-229.000000, -433.000000)">
            <g id="camera" transform="translate(229.000000, 433.000000)">
                <path d="M20.93,4.23611111 L7.14,4.23611111 L9.52,0.694444444 C9.8,0.277777778 10.22,0.0694444444 10.71,0.0694444444 L17.43,0.0694444444 C17.92,0.0694444444 18.34,0.277777778 18.62,0.694444444 L20.93,4.23611111 L20.93,4.23611111 Z" id="Shape" fill="#808080"></path>
                <path d="M7,3.47222222 L2.8,3.47222222 L2.8,2.22222222 C2.8,1.73611111 3.15,1.38888889 3.64,1.38888889 L6.16,1.38888889 C6.65,1.38888889 7,1.73611111 7,2.22222222 L7,3.47222222 L7,3.47222222 Z" id="Shape" fill="#808080"></path>
                <path d="M2.8,25 C1.26,25 0,23.75 0,22.2222222 L0,5.55555556 C0,4.02777778 1.26,2.77777778 2.8,2.77777778 L25.2,2.77777778 C26.74,2.77777778 28,4.02777778 28,5.55555556 L28,22.2222222 C28,23.75 26.74,25 25.2,25 L2.8,25 Z" id="Shape" fill="#535353"></path>
                <ellipse id="Oval" fill="#808080" cx="14" cy="13.8888889" rx="8.4" ry="8.33333333"></ellipse>
                <ellipse id="Oval" fill="#E6E6E6" cx="14" cy="13.8888889" rx="6.3" ry="6.25"></ellipse>
                <path d="M17.5,11.8055556 C16.66,10.8333333 15.4,10.2777778 14.14,10.2777778 C12.88,10.2777778 11.62,10.8333333 10.78,11.8055556 C10.43,12.1527778 10.5,12.7083333 10.85,13.0555556 C11.2,13.4027778 11.76,13.3333333 12.11,12.9861111 C13.16,11.8055556 15.12,11.8055556 16.17,12.9861111 C16.38,13.1944444 16.59,13.2638889 16.87,13.2638889 C17.08,13.2638889 17.29,13.1944444 17.5,13.0555556 C17.78,12.7777778 17.85,12.1527778 17.5,11.8055556 L17.5,11.8055556 Z" id="Shape" fill="#D0D0D0"></path>
                <ellipse id="Oval" fill="#808080" cx="4.9" cy="5.20833333" rx="1.4" ry="1.04166667"></ellipse>
            </g>
        </g>
    </g>
</svg>