<?xml version="1.0" encoding="utf-8"?>
<!-- Generator: Adobe Illustrator 19.2.1, SVG Export Plug-In . SVG Version: 6.00 Build 0)  -->
<svg version="1.1" id="Layer_1" xmlns="http://www.w3.org/2000/svg" xmlns:xlink="http://www.w3.org/1999/xlink" x="0px" y="0px"
	 viewBox="0 0 48 48" style="enable-background:new 0 0 48 48;" xml:space="preserve">
<style type="text/css">
	.st0{fill:#595C5E;}
	.st1{fill:#898D91;}
	.st2{fill:none;stroke:#595C5E;stroke-width:2;stroke-linecap:square;stroke-miterlimit:10;}
	.st3{fill:none;stroke:#212121;stroke-width:4;stroke-linejoin:round;stroke-miterlimit:10;}
</style>
<rect x="22.9" y="39" class="st0" width="3.3" height="5.3"/>
<path class="st1" d="M14.7,10.5c0-5.5,4.5-9.9,9.9-9.9c5.5,0,9.9,4.5,9.9,9.9v15.8c0,5.5-4.5,9.9-9.9,9.9c-5.5,0-9.9-4.5-9.9-9.9
	C14.7,26.3,14.7,10.5,14.7,10.5z"/>
<rect x="12" y="44.3" class="st0" width="25" height="2.7"/>
<path class="st2" d="M12,18.5v9c0,5.6,4.6,10.8,10.1,11.3l2.3,0.3l2.3-0.3c5.6-0.6,10.1-5.6,10.1-11.3v-9"/>
<rect x="28" y="12.6" class="st0" width="6.5" height="2.7"/>
<rect x="28" y="17.2" class="st0" width="6.5" height="2.7"/>
<rect x="28" y="22.5" class="st0" width="6.5" height="2.7"/>
<rect x="14.7" y="17.2" class="st0" width="6.7" height="2.7"/>
<rect x="14.7" y="22.5" class="st0" width="6.7" height="2.7"/>
<rect x="14.7" y="12.6" class="st0" width="6.7" height="2.7"/>
<line class="st3" x1="5" y1="5" x2="43" y2="43"/>
</svg>
