<?xml version="1.0" encoding="utf-8"?>
<!-- Generator: Adobe Illustrator 19.2.1, SVG Export Plug-In . SVG Version: 6.00 Build 0)  -->
<svg version="1.1" id="Layer_1" xmlns="http://www.w3.org/2000/svg" xmlns:xlink="http://www.w3.org/1999/xlink" x="0px" y="0px"
	 viewBox="0 0 35 30.9" style="enable-background:new 0 0 35 30.9;" xml:space="preserve">
<style type="text/css">
	.st0{fill:#546E7A;}
	.st1{fill:#BBDEFB;}
	.st2{fill:#455A64;}
	.st3{fill:#FF1010;}
	.st4{fill:none;stroke:#EE2929;stroke-miterlimit:10;}
</style>
<path class="st0" d="M0,1.6c0-1,0.8-1.7,1.7-1.7h31.6c1,0,1.7,0.8,1.7,1.7v21.8c0,1-0.8,1.7-1.7,1.7H1.7c-1,0-1.7-0.8-1.7-1.7V1.6z"
	/>
<path class="st1" d="M1.9,2.7c0-0.5,0.4-0.9,0.9-0.9h29.4c0.5,0,0.9,0.4,0.9,0.9v18.7c0,0.5-0.4,0.9-0.9,0.9H2.8
	c-0.5,0-0.9-0.4-0.9-0.9V2.7z"/>
<rect x="14.6" y="25.1" class="st2" width="5.8" height="2.9"/>
<path class="st2" d="M26.3,28H8.8c-2,0-2,2-2,2v1h21.4v-1C28.2,30,28.2,28,26.3,28z"/>
<path class="st3" d="M20.4,16.6h-5.3c-0.8,0-1.5-0.7-1.5-1.5V9.7c0-0.8,0.7-1.5,1.5-1.5h5.3c0.8,0,1.5,0.7,1.5,1.5v5.3
	C21.9,15.9,21.3,16.6,20.4,16.6z"/>
<circle class="st4" cx="17.8" cy="12.4" r="7.4"/>
</svg>
