<?xml version="1.0" encoding="utf-8"?>
<!-- Generator: Adobe Illustrator 19.2.0, SVG Export Plug-In . SVG Version: 6.00 Build 0)  -->
<svg version="1.1" id="Layer_1" xmlns="http://www.w3.org/2000/svg" xmlns:xlink="http://www.w3.org/1999/xlink" x="0px" y="0px"
	 viewBox="0 0 35 30.9" style="enable-background:new 0 0 35 30.9;" xml:space="preserve">
<style type="text/css">
	.st0{fill-rule:evenodd;clip-rule:evenodd;fill:#546E7A;}
	.st1{fill-rule:evenodd;clip-rule:evenodd;fill:#BBDEFB;}
	.st2{fill-rule:evenodd;clip-rule:evenodd;fill:#1976D2;}
	.st3{fill-rule:evenodd;clip-rule:evenodd;fill:#1E88E5;}
	.st4{fill-rule:evenodd;clip-rule:evenodd;fill:#455A64;}
</style>
<path class="st0" d="M0,1.6c0-1,0.8-1.7,1.7-1.7h31.6c1,0,1.7,0.8,1.7,1.7v21.8c0,1-0.8,1.7-1.7,1.7H1.7c-1,0-1.7-0.8-1.7-1.7V1.6z"
	/>
<path class="st1" d="M1.9,2.7c0-0.5,0.4-0.9,0.9-0.9h29.4c0.5,0,0.9,0.4,0.9,0.9v18.7c0,0.5-0.4,0.9-0.9,0.9H2.8
	c-0.5,0-0.9-0.4-0.9-0.9V2.7z"/>
<path class="st2" d="M23.3,15.4l-7.9-3l7.9-3c0.6-0.3,1-1,0.7-1.7c-0.3-0.6-1-1-1.7-0.7l-11,4.2c-0.5,0.2-0.8,0.7-0.8,1.2
	c0,0.5,0.3,1,0.8,1.2l11,4.2c0.2,0,0.3,0.1,0.5,0.1c0.5,0,1-0.3,1.2-0.8C24.3,16.3,24,15.6,23.3,15.4z"/>
<circle class="st3" cx="11.9" cy="12.3" r="3"/>
<circle class="st3" cx="22.9" cy="8.1" r="3"/>
<circle class="st3" cx="22.9" cy="16.6" r="3"/>
<rect x="14.6" y="25.1" class="st4" width="5.8" height="2.9"/>
<path class="st4" d="M26.3,28H8.8C6.8,28,6.8,30,6.8,30v1h21.4v-1C28.2,30,28.2,28,26.3,28z"/>
</svg>
