<?xml version="1.0" encoding="utf-8"?>
<!-- Generated by IcoMoon.io -->
<!DOCTYPE svg PUBLIC "-//W3C//DTD SVG 1.1//EN" "http://www.w3.org/Graphics/SVG/1.1/DTD/svg11.dtd">
<svg version="1.1" xmlns="http://www.w3.org/2000/svg" xmlns:xlink="http://www.w3.org/1999/xlink" width="16" height="16" viewBox="0 0 16 16">
<path d="M10.403 7.039c0-0.927-0.329-1.719-0.988-2.377s-1.451-0.988-2.377-0.988c-0.926-0-1.719 0.329-2.377 0.988s-0.988 1.451-0.988 2.377c0 0.926 0.329 1.718 0.988 2.377s1.451 0.988 2.377 0.988c0.926-0 1.719-0.33 2.377-0.988s0.988-1.451 0.988-2.377zM14.249 13.289c0 0.26-0.095 0.486-0.286 0.676s-0.416 0.286-0.676 0.286c-0.271 0-0.496-0.095-0.676-0.286l-2.576-2.569c-0.896 0.621-1.895 0.931-2.997 0.931-0.716 0-1.401-0.139-2.054-0.417s-1.217-0.653-1.69-1.127c-0.473-0.473-0.849-1.037-1.127-1.69s-0.417-1.338-0.417-2.054 0.139-1.401 0.417-2.054 0.654-1.217 1.127-1.69 1.037-0.849 1.69-1.127 1.338-0.417 2.054-0.417 1.401 0.139 2.054 0.417c0.653 0.278 1.217 0.654 1.69 1.127s0.849 1.037 1.127 1.69c0.278 0.654 0.417 1.338 0.417 2.054 0 1.102-0.31 2.101-0.931 2.997l2.576 2.576c0.185 0.185 0.278 0.411 0.278 0.676l-0 0.001z" fill="rgb(68, 68, 68)"></path>
</svg>
