<?xml version="1.0" encoding="UTF-8" standalone="no"?>
<svg width="25px" height="25px" viewBox="0 0 25 25" version="1.1" xmlns="http://www.w3.org/2000/svg" xmlns:xlink="http://www.w3.org/1999/xlink">
    <!-- Generator: Sketch 3.6.1 (26313) - http://www.bohemiancoding.com/sketch -->
    <title>Group 4</title>
    <desc>Created with Sketch.</desc>
    <defs></defs>
    <g id="Page-1" stroke="none" stroke-width="1" fill="none" fill-rule="evenodd" opacity="0.6">
        <g id="Artboard-40" transform="translate(-199.000000, -444.000000)" fill="#8A8A8A">
            <g id="Group-4" transform="translate(199.000000, 444.000000)">
                <g id="settings">
                    <path d="M21.9047619,12.5 C21.9047619,12.0238095 21.8452381,11.6071429 21.7857143,11.1904762 L24.4642857,9.28571429 C24.702381,9.10714286 24.8214286,8.75 24.6428571,8.45238095 L22.0238095,4.04761905 C21.8452381,3.75 21.547619,3.63095238 21.25,3.80952381 L18.2738095,5.17857143 C17.5595238,4.64285714 16.8452381,4.22619048 16.0119048,3.86904762 L15.7142857,0.595238095 C15.6547619,0.297619048 15.4166667,0.0595238095 15.1190476,0.0595238095 L10,0.0595238095 C9.70238095,0.0595238095 9.4047619,0.297619048 9.4047619,0.595238095 L9.10714286,3.86904762 C8.27380952,4.22619048 7.5,4.64285714 6.8452381,5.17857143 L3.86904762,3.80952381 C3.57142857,3.69047619 3.21428571,3.80952381 3.0952381,4.04761905 L0.535714286,8.45238095 C0.357142857,8.75 0.476190476,9.10714286 0.714285714,9.28571429 L3.39285714,11.1904762 C3.33333333,11.6071429 3.27380952,12.0238095 3.27380952,12.5 C3.27380952,12.9761905 3.33333333,13.3928571 3.39285714,13.8095238 L0.595238095,15.7142857 C0.357142857,15.8928571 0.238095238,16.25 0.416666667,16.547619 L2.97619048,20.952381 C3.1547619,21.25 3.45238095,21.3690476 3.75,21.1904762 L6.72619048,19.8214286 C7.44047619,20.3571429 8.1547619,20.7738095 8.98809524,21.1309524 L9.28571429,24.4047619 C9.3452381,24.702381 9.58333333,24.9404762 9.88095238,24.9404762 L15,24.9404762 C15.297619,24.9404762 15.5952381,24.702381 15.5952381,24.4047619 L15.8928571,21.1309524 C16.7261905,20.7738095 17.5,20.3571429 18.1547619,19.8214286 L21.1309524,21.1904762 C21.4285714,21.3095238 21.7857143,21.1904762 21.9047619,20.952381 L24.4642857,16.547619 C24.6428571,16.25 24.5238095,15.8928571 24.2857143,15.7142857 L21.7857143,13.8095238 C21.8452381,13.3928571 21.9047619,12.9761905 21.9047619,12.5 Z M12.5,18.452381 C9.22619048,18.452381 6.54761905,15.7738095 6.54761905,12.5 C6.54761905,9.22619048 9.22619048,6.54761905 12.5,6.54761905 C15.7738095,6.54761905 18.452381,9.22619048 18.452381,12.5 C18.452381,15.7738095 15.7738095,18.452381 12.5,18.452381 L12.5,18.452381 Z" id="Shape"></path>
                    <path d="M12.5028425,5.35714286 C8.57427107,5.35714286 5.35998535,8.57142857 5.35998535,12.5 C5.35998535,16.4285714 8.57427107,19.6428571 12.5028425,19.6428571 C16.4314139,19.6428571 19.6456996,16.4285714 19.6456996,12.5 C19.6456996,8.57142857 16.4314139,5.35714286 12.5028425,5.35714286 L12.5028425,5.35714286 Z M12.5,15.4761905 C10.8333333,15.4761905 9.52380952,14.1666667 9.52380952,12.5 C9.52380952,10.8333333 10.8333333,9.52380952 12.5,9.52380952 C14.1666667,9.52380952 15.4761905,10.8333333 15.4761905,12.5 C15.4761905,14.1666667 14.1666667,15.4761905 12.5,15.4761905 L12.5,15.4761905 Z" id="Shape" fill-opacity="0.6"></path>
                </g>
            </g>
        </g>
    </g>
</svg>