<?xml version="1.0" encoding="UTF-8" standalone="no"?>
<svg width="26px" height="26px" viewBox="0 0 26 26" version="1.1" xmlns="http://www.w3.org/2000/svg" xmlns:xlink="http://www.w3.org/1999/xlink">
    <!-- Generator: Sketch 3.6.1 (26313) - http://www.bohemiancoding.com/sketch -->
    <title>Page 1</title>
    <desc>Created with Sketch.</desc>
    <defs></defs>
    <g id="Page-1" stroke="none" stroke-width="1" fill="none" fill-rule="evenodd">
        <g id="Artboard-40-Copy" transform="translate(-760.000000, -451.000000)" fill="#000000">
            <g id="Group-28" transform="translate(556.000000, 430.000000)">
                <g id="Group-30">
                    <g id="Page-1" transform="translate(204.000000, 21.000000)">
                        <path d="M7.930875,20.1190019 C6.566375,21.5262835 5.202875,22.9345748 3.836375,24.3398369 C3.486125,24.6997981 3.134125,25.0592544 2.767875,25.4023029 C2.060875,26.0639146 1.273125,26.223701 0.546125,25.5100893 C-0.205625,24.7724971 -0.157875,23.8970796 0.545875,23.155701 C1.957875,21.6678951 3.423125,20.2315845 4.861875,18.7695262 C5.170625,18.4557592 5.460625,18.1233126 5.661125,17.4644777 C4.849625,17.4644777 4.037375,17.4839146 3.226625,17.4601864 C1.969125,17.423332 1.247375,16.8091767 1.324875,15.7987107 C1.413375,14.6441087 2.179875,14.2450214 3.222125,14.2427495 C5.388375,14.237701 7.554625,14.2316427 9.720875,14.2450214 C10.878375,14.2523417 11.512875,14.8629631 11.522125,16.0367495 C11.540375,18.3502447 11.542375,20.6639922 11.517125,22.977235 C11.506375,23.9589243 10.986125,24.6048854 9.989875,24.6106913 C8.999625,24.6164971 8.469375,23.9695262 8.410875,23.0052544 C8.356375,22.1045942 8.399375,21.1976233 8.399375,20.2934291 C8.243125,20.2353709 8.087125,20.1770602 7.930875,20.1190019" id="Fill-1"></path>
                        <path d="M17.899025,5.84260388 C19.245525,4.49035146 20.592275,3.13835146 21.938275,1.78559417 C22.322025,1.39988544 22.697275,1.00559417 23.087275,0.626700971 C23.814025,-0.0795902913 24.610525,-0.259570874 25.417275,0.455807767 C26.148775,1.10479806 26.112775,2.04685631 25.296025,2.90132233 C23.908275,4.3532835 22.475025,5.7610699 21.066025,7.19233204 C20.752025,7.51114757 20.459025,7.85116699 20.237025,8.5105068 C21.042775,8.5105068 21.849025,8.49561359 22.654275,8.51404078 C23.964775,8.54357476 24.644525,9.09714757 24.586775,10.118468 C24.520025,11.2967981 23.766525,11.6638272 22.711275,11.6587786 C20.546025,11.6484291 18.380275,11.6772058 16.215275,11.6454 C14.915025,11.6262155 14.402275,11.1054583 14.383275,9.78425437 C14.351775,7.59823495 14.370025,5.41145825 14.374275,3.22518641 C14.376525,2.17054563 14.777275,1.40240971 15.922025,1.32264272 C16.901775,1.25473981 17.475025,1.99914757 17.496775,3.29308932 C17.510025,4.07813786 17.499275,4.86343883 17.499275,5.64848738 C17.632525,5.71336117 17.765775,5.77798252 17.899025,5.84260388" id="Fill-3"></path>
                    </g>
                </g>
            </g>
        </g>
    </g>
</svg>