<?xml version="1.0" encoding="UTF-8" standalone="no"?>
<svg width="444px" height="331px" viewBox="0 0 444 331" version="1.1" xmlns="http://www.w3.org/2000/svg" xmlns:xlink="http://www.w3.org/1999/xlink">
    <!-- Generator: Sketch 3.6.1 (26313) - http://www.bohemiancoding.com/sketch -->
    <title>Group 8</title>
    <desc>Created with Sketch.</desc>
    <defs>
        <rect id="path-1" x="0" y="0" width="442" height="329"></rect>
    </defs>
    <g id="Page-1" stroke="none" stroke-width="1" fill="none" fill-rule="evenodd">
        <g id="Artboard-40" transform="translate(-1705.000000, -470.000000)">
            <g id="Group-8" transform="translate(1706.000000, 471.000000)">
                <g id="Rectangle-1058">
                    <use stroke="none" xlink:href="#path-1"></use>
                    <use stroke="#CCCED0" stroke-width="1" stroke-linecap="square" stroke-dasharray="1,1,4" xlink:href="#path-1"></use>
                </g>
                <g id="Group-35" transform="translate(146.000000, 155.000000)" font-size="19" font-family="OpenSans, Open Sans" fill="#000000" font-weight="normal">
                    <text id="Start-a-video-call!">
                        <tspan x="0.0297851562" y="20">Start a video call!</tspan>
                    </text>
                </g>
                <g id="video_call" transform="translate(186.000000, 97.000000)">
                    <path d="M7,0 L45.5,0 C49.35,0 52.5,3.15 52.5,7 L52.5,35 C52.5,38.85 49.35,42 45.5,42 L7,42 C3.15,42 0,38.85 0,35 L0,7 C0,3.15 3.15,0 7,0 L7,0 Z" id="Shape" fill="#4CAF50"></path>
                    <path d="M70,40.25 L52.5,29.75 L52.5,12.25 L70,1.75 L70,40.25 Z" id="Shape" fill="#388E3C"></path>
                </g>
                <g id="Group-35" transform="translate(81.000000, 189.000000)" font-size="12" font-family="OpenSans, Open Sans" fill="#BEC1C3" font-weight="normal">
                    <text id="Need-to-have-a-quick">
                        <tspan x="0.713867188" y="13">Need to have a quick face-to-face with your team?</tspan>
                        <tspan x="54.2919922" y="30">Select to start a video call now!</tspan>
                    </text>
                </g>
            </g>
        </g>
    </g>
</svg>